<svg width="326" height="219" viewBox="0 0 326 219" fill="none" xmlns="http://www.w3.org/2000/svg">
<rect x="28" width="298" height="187" rx="7" fill="url(#paint0_linear_257_984)" fill-opacity="0.6"/>
<rect x="31" y="3" width="292" height="216" rx="5" fill="url(#paint1_linear_257_984)" fill-opacity="0.5"/>
<rect x="247" y="67" width="52" height="13" fill="#ACDCFF"/>
<rect x="91" y="98" width="42" height="13" fill="#FFBEDD"/>
<path d="M66.2888 43.86C66.1568 43.056 65.5088 42.564 64.7768 42.564C63.6728 42.564 63.0368 43.416 63.0368 44.82C63.0368 46.224 63.6728 47.076 64.7768 47.076C65.5448 47.076 66.1928 46.56 66.3368 45.684L67.5488 45.756C67.3448 47.22 66.1688 48.144 64.7768 48.144C62.9888 48.144 61.8368 46.836 61.8368 44.82C61.8368 42.804 62.9888 41.496 64.7768 41.496C66.1208 41.496 67.3208 42.384 67.4888 43.788L66.2888 43.86ZM69.1881 46.992H71.6001V41.22C71.6001 40.716 71.3841 40.488 70.9041 40.488H69.4041V39.48H70.9041C72.0921 39.48 72.7401 40.092 72.7401 41.22V46.992H74.9121V48H69.1881V46.992ZM80.0074 41.64V46.992H82.1314V48H76.3834V46.992H78.8554V42.648H76.6114V41.64H80.0074ZM78.7474 40.728V39.48H80.0074V40.728H78.7474ZM83.3508 44.82C83.3508 42.804 84.5148 41.496 86.3028 41.496C87.7428 41.496 89.0268 42.444 89.1228 44.712V45.144H84.5868C84.6708 46.368 85.2828 47.076 86.3028 47.076C86.9508 47.076 87.5268 46.704 87.8028 46.056L89.0268 46.164C88.6548 47.376 87.5748 48.144 86.3028 48.144C84.5148 48.144 83.3508 46.836 83.3508 44.82ZM84.5988 44.22H87.8748C87.7068 43.008 87.0468 42.564 86.3028 42.564C85.3668 42.564 84.7668 43.176 84.5988 44.22ZM90.9421 41.64H91.9861L92.0221 42.72C92.3581 41.892 93.0661 41.496 93.9181 41.496C95.3341 41.496 96.0301 42.54 96.0301 43.908V48H94.8901V44.208C94.8901 43.068 94.5181 42.468 93.6301 42.468C92.6941 42.468 92.0941 43.068 92.0941 44.208V48H90.9421V41.64ZM99.5414 39.96H100.681V41.64H103.177V42.648H100.681V46.128C100.681 46.668 100.969 46.992 101.509 46.992H103.165V48H101.437C100.105 48 99.5414 47.292 99.5414 46.176V42.648H97.7294V41.64H99.5414V39.96ZM107.037 46.524H108.549V48H107.037V46.524ZM116.656 43.86C116.524 43.056 115.876 42.564 115.144 42.564C114.04 42.564 113.404 43.416 113.404 44.82C113.404 46.224 114.04 47.076 115.144 47.076C115.912 47.076 116.56 46.56 116.704 45.684L117.916 45.756C117.712 47.22 116.536 48.144 115.144 48.144C113.356 48.144 112.204 46.836 112.204 44.82C112.204 42.804 113.356 41.496 115.144 41.496C116.488 41.496 117.688 42.384 117.856 43.788L116.656 43.86ZM119.447 43.536C119.687 42.3 120.743 41.496 122.087 41.496C123.635 41.496 124.643 42.396 124.643 44.16V46.572C124.643 46.86 124.763 46.992 125.039 46.992H125.303V48H124.979C124.211 48 123.755 47.592 123.647 47.016C123.395 47.616 122.651 48.144 121.655 48.144C120.371 48.144 119.339 47.472 119.339 46.332C119.339 45.024 120.323 44.64 121.775 44.376L123.503 44.028C123.479 43.044 122.927 42.564 122.075 42.564C121.343 42.564 120.803 42.996 120.659 43.62L119.447 43.536ZM120.551 46.308C120.551 46.764 120.947 47.148 121.799 47.148C122.771 47.136 123.515 46.464 123.515 45.312V45.024L122.147 45.264C121.247 45.42 120.539 45.504 120.551 46.308ZM129.271 41.64L129.355 42.84C129.583 42.024 130.099 41.64 130.939 41.64H132.235V42.648H130.975C130.027 42.648 129.595 43.188 129.595 44.244V46.992H131.623V48H126.811V46.992H128.443V42.648H126.811V41.64H129.271ZM135.518 39.96H136.658V41.64H139.154V42.648H136.658V46.128C136.658 46.668 136.946 46.992 137.486 46.992H139.142V48H137.414C136.082 48 135.518 47.292 135.518 46.176V42.648H133.706V41.64H135.518V39.96ZM145.197 43.632C145.065 42.948 144.441 42.564 143.685 42.564C143.061 42.564 142.485 42.864 142.509 43.464C142.509 44.088 143.265 44.244 143.997 44.436C145.221 44.736 146.421 45.18 146.421 46.356C146.421 47.604 145.221 48.144 143.901 48.144C142.413 48.144 141.201 47.304 141.117 45.984L142.317 45.912C142.425 46.632 143.073 47.076 143.901 47.076C144.549 47.076 145.209 46.908 145.209 46.296C145.209 45.672 144.393 45.552 143.685 45.384C142.473 45.096 141.309 44.64 141.309 43.5C141.297 42.228 142.449 41.496 143.793 41.496C145.125 41.496 146.169 42.3 146.373 43.56L145.197 43.632ZM150.209 46.524H151.721V48H150.209V46.524ZM159.828 43.86C159.696 43.056 159.048 42.564 158.316 42.564C157.212 42.564 156.576 43.416 156.576 44.82C156.576 46.224 157.212 47.076 158.316 47.076C159.084 47.076 159.732 46.56 159.876 45.684L161.088 45.756C160.884 47.22 159.708 48.144 158.316 48.144C156.528 48.144 155.376 46.836 155.376 44.82C155.376 42.804 156.528 41.496 158.316 41.496C159.66 41.496 160.86 42.384 161.028 43.788L159.828 43.86ZM165.247 41.64L165.331 42.84C165.559 42.024 166.075 41.64 166.915 41.64H168.211V42.648H166.951C166.003 42.648 165.571 43.188 165.571 44.244V46.992H167.599V48H162.787V46.992H164.419V42.648H162.787V41.64H165.247ZM169.695 44.82C169.695 42.804 170.859 41.496 172.647 41.496C174.087 41.496 175.371 42.444 175.467 44.712V45.144H170.931C171.015 46.368 171.627 47.076 172.647 47.076C173.295 47.076 173.871 46.704 174.147 46.056L175.371 46.164C174.999 47.376 173.919 48.144 172.647 48.144C170.859 48.144 169.695 46.836 169.695 44.82ZM170.943 44.22H174.219C174.051 43.008 173.391 42.564 172.647 42.564C171.711 42.564 171.111 43.176 170.943 44.22ZM177.01 43.536C177.25 42.3 178.306 41.496 179.65 41.496C181.198 41.496 182.206 42.396 182.206 44.16V46.572C182.206 46.86 182.326 46.992 182.602 46.992H182.866V48H182.542C181.774 48 181.318 47.592 181.21 47.016C180.958 47.616 180.214 48.144 179.218 48.144C177.934 48.144 176.902 47.472 176.902 46.332C176.902 45.024 177.886 44.64 179.338 44.376L181.066 44.028C181.042 43.044 180.49 42.564 179.638 42.564C178.906 42.564 178.366 42.996 178.222 43.62L177.01 43.536ZM178.114 46.308C178.114 46.764 178.51 47.148 179.362 47.148C180.334 47.136 181.078 46.464 181.078 45.312V45.024L179.71 45.264C178.81 45.42 178.102 45.504 178.114 46.308ZM185.885 39.96H187.025V41.64H189.521V42.648H187.025V46.128C187.025 46.668 187.313 46.992 187.853 46.992H189.509V48H187.781C186.449 48 185.885 47.292 185.885 46.176V42.648H184.073V41.64H185.885V39.96ZM191.28 44.82C191.28 42.804 192.444 41.496 194.232 41.496C195.672 41.496 196.956 42.444 197.052 44.712V45.144H192.516C192.6 46.368 193.212 47.076 194.232 47.076C194.88 47.076 195.456 46.704 195.732 46.056L196.956 46.164C196.584 47.376 195.504 48.144 194.232 48.144C192.444 48.144 191.28 46.836 191.28 44.82ZM192.528 44.22H195.804C195.636 43.008 194.976 42.564 194.232 42.564C193.296 42.564 192.696 43.176 192.528 44.22ZM203.144 38.76C200.528 41.964 200.528 45.876 203.144 49.08H202.148C199.244 45.972 199.244 41.868 202.148 38.76H203.144ZM207.711 38.76C210.615 41.868 210.615 45.972 207.711 49.08H206.715C209.331 45.876 209.331 41.964 206.715 38.76H207.711ZM78.2554 61.524H79.7674V63H78.2554V61.524ZM85.1508 54.96H86.2908V56.64H88.7868V57.648H86.2908V61.128C86.2908 61.668 86.5788 61.992 87.1188 61.992H88.7748V63H87.0468C85.7148 63 85.1508 62.292 85.1508 61.176V57.648H83.3388V56.64H85.1508V54.96ZM90.9901 54.48H92.1421V57.48C92.5141 56.808 93.2221 56.496 93.9781 56.496C95.3941 56.496 96.0781 57.54 96.0781 58.908V63H94.9261V59.268C94.9261 58.128 94.5661 57.528 93.6781 57.528C92.7421 57.528 92.1421 58.128 92.1421 59.268V63H90.9901V54.48ZM97.7414 59.82C97.7414 57.804 98.9054 56.496 100.693 56.496C102.133 56.496 103.417 57.444 103.513 59.712V60.144H98.9774C99.0614 61.368 99.6734 62.076 100.693 62.076C101.341 62.076 101.917 61.704 102.193 61.056L103.417 61.164C103.045 62.376 101.965 63.144 100.693 63.144C98.9054 63.144 97.7414 61.836 97.7414 59.82ZM98.9894 59.22H102.265C102.097 58.008 101.437 57.564 100.693 57.564C99.7574 57.564 99.1574 58.176 98.9894 59.22ZM105.333 56.64H106.377L106.413 57.72C106.749 56.892 107.457 56.496 108.309 56.496C109.725 56.496 110.421 57.54 110.421 58.908V63H109.281V59.208C109.281 58.068 108.909 57.468 108.021 57.468C107.085 57.468 106.485 58.068 106.485 59.208V63H105.333V56.64ZM116.8 53.76C114.184 56.964 114.184 60.876 116.8 64.08H115.804C112.9 60.972 112.9 56.868 115.804 53.76H116.8ZM123.995 53.76C121.379 56.964 121.379 60.876 123.995 64.08H122.999C120.095 60.972 120.095 56.868 122.999 53.76H123.995ZM126.895 58.416C128.287 58.44 128.779 58.02 128.779 56.892V55.932C128.779 54.648 129.703 53.76 131.071 53.76H131.707V54.816C130.375 54.768 129.883 55.104 129.883 55.932V56.964C129.883 58.032 129.247 58.812 128.359 58.956V58.992C129.271 59.148 129.883 59.928 129.883 61.008V62.04C129.883 62.868 130.375 63.192 131.707 63.156V64.212H131.071C129.703 64.212 128.779 63.336 128.779 62.052V61.08C128.779 59.952 128.287 59.532 126.895 59.556V58.416ZM145.437 58.86C145.305 58.056 144.657 57.564 143.925 57.564C142.821 57.564 142.185 58.416 142.185 59.82C142.185 61.224 142.821 62.076 143.925 62.076C144.693 62.076 145.341 61.56 145.485 60.684L146.697 60.756C146.493 62.22 145.317 63.144 143.925 63.144C142.137 63.144 140.985 61.836 140.985 59.82C140.985 57.804 142.137 56.496 143.925 56.496C145.269 56.496 146.469 57.384 146.637 58.788L145.437 58.86ZM148.229 58.536C148.469 57.3 149.525 56.496 150.869 56.496C152.417 56.496 153.425 57.396 153.425 59.16V61.572C153.425 61.86 153.545 61.992 153.821 61.992H154.085V63H153.761C152.993 63 152.537 62.592 152.429 62.016C152.177 62.616 151.433 63.144 150.437 63.144C149.153 63.144 148.121 62.472 148.121 61.332C148.121 60.024 149.105 59.64 150.557 59.376L152.285 59.028C152.261 58.044 151.709 57.564 150.857 57.564C150.125 57.564 149.585 57.996 149.441 58.62L148.229 58.536ZM149.333 61.308C149.333 61.764 149.729 62.148 150.581 62.148C151.553 62.136 152.297 61.464 152.297 60.312V60.024L150.929 60.264C150.029 60.42 149.321 60.504 149.333 61.308ZM158.052 56.64L158.136 57.84C158.364 57.024 158.88 56.64 159.72 56.64H161.016V57.648H159.756C158.808 57.648 158.376 58.188 158.376 59.244V61.992H160.404V63H155.592V61.992H157.224V57.648H155.592V56.64H158.052ZM164.299 54.96H165.439V56.64H167.935V57.648H165.439V61.128C165.439 61.668 165.727 61.992 166.267 61.992H167.923V63H166.195C164.863 63 164.299 62.292 164.299 61.176V57.648H162.487V56.64H164.299V54.96ZM182.23 59.556C180.838 59.532 180.346 59.952 180.346 61.08V62.052C180.346 63.336 179.422 64.212 178.054 64.212H177.418V63.156C178.75 63.192 179.242 62.868 179.242 62.04V61.008C179.242 59.928 179.854 59.148 180.766 58.992V58.956C179.878 58.812 179.242 58.032 179.242 56.964V55.932C179.242 55.104 178.75 54.768 177.418 54.816V53.76H178.054C179.422 53.76 180.346 54.648 180.346 55.932V56.892C180.346 58.02 180.838 58.44 182.23 58.416V59.556ZM186.125 53.76C189.029 56.868 189.029 60.972 186.125 64.08H185.129C187.745 60.876 187.745 56.964 185.129 53.76H186.125ZM198.476 57.444H208.196L206.852 56.1H208.28L211.388 59.22L208.268 62.34L206.84 62.352L208.196 60.996H198.476V59.94H209.24L209.96 59.22L209.252 58.512H198.476V57.444ZM220.445 58.416C221.837 58.44 222.329 58.02 222.329 56.892V55.932C222.329 54.648 223.253 53.76 224.621 53.76H225.257V54.816C223.925 54.768 223.433 55.104 223.433 55.932V56.964C223.433 58.032 222.797 58.812 221.909 58.956V58.992C222.821 59.148 223.433 59.928 223.433 61.008V62.04C223.433 62.868 223.925 63.192 225.257 63.156V64.212H224.621C223.253 64.212 222.329 63.336 222.329 62.052V61.08C222.329 59.952 221.837 59.532 220.445 59.556V58.416ZM90.7741 76.992H93.1861V71.22C93.1861 70.716 92.9701 70.488 92.4901 70.488H90.9901V69.48H92.4901C93.6781 69.48 94.3261 70.092 94.3261 71.22V76.992H96.4981V78H90.7741V76.992ZM100.597 78.144C98.8334 78.144 97.6574 76.824 97.6574 74.82C97.6574 72.816 98.8334 71.496 100.597 71.496C102.361 71.496 103.537 72.816 103.537 74.82C103.537 76.824 102.361 78.144 100.597 78.144ZM98.8574 74.82C98.8574 76.224 99.4934 77.076 100.597 77.076C101.701 77.076 102.337 76.224 102.337 74.82C102.337 73.416 101.701 72.564 100.597 72.564C99.4934 72.564 98.8574 73.416 98.8574 74.82ZM109.461 73.86C109.329 73.056 108.681 72.564 107.949 72.564C106.845 72.564 106.209 73.416 106.209 74.82C106.209 76.224 106.845 77.076 107.949 77.076C108.717 77.076 109.365 76.56 109.509 75.684L110.721 75.756C110.517 77.22 109.341 78.144 107.949 78.144C106.161 78.144 105.009 76.836 105.009 74.82C105.009 72.804 106.161 71.496 107.949 71.496C109.293 71.496 110.493 72.384 110.661 73.788L109.461 73.86ZM112.252 73.536C112.492 72.3 113.548 71.496 114.892 71.496C116.44 71.496 117.448 72.396 117.448 74.16V76.572C117.448 76.86 117.568 76.992 117.844 76.992H118.108V78H117.784C117.016 78 116.56 77.592 116.452 77.016C116.2 77.616 115.456 78.144 114.46 78.144C113.176 78.144 112.144 77.472 112.144 76.332C112.144 75.024 113.128 74.64 114.58 74.376L116.308 74.028C116.284 73.044 115.732 72.564 114.88 72.564C114.148 72.564 113.608 72.996 113.464 73.62L112.252 73.536ZM113.356 76.308C113.356 76.764 113.752 77.148 114.604 77.148C115.576 77.136 116.32 76.464 116.32 75.312V75.024L114.952 75.264C114.052 75.42 113.344 75.504 113.356 76.308ZM119.555 76.992H121.967V71.22C121.967 70.716 121.751 70.488 121.271 70.488H119.771V69.48H121.271C122.459 69.48 123.107 70.092 123.107 71.22V76.992H125.279V78H119.555V76.992ZM127.531 75.168C127.747 76.284 128.491 77.028 129.667 77.028C130.579 77.028 131.251 76.596 131.239 75.792C131.239 74.988 130.543 74.508 129.067 74.1C127.279 73.632 126.499 72.876 126.499 71.688C126.499 70.212 127.651 69.288 129.223 69.288C130.927 69.288 132.127 70.428 132.307 72.024L131.083 72.096C130.951 71.076 130.195 70.404 129.199 70.404C128.371 70.404 127.699 70.908 127.711 71.7C127.723 72.636 128.743 72.912 129.775 73.188C131.251 73.596 132.451 74.4 132.451 75.696C132.451 77.292 131.071 78.144 129.595 78.144C127.807 78.144 126.451 77.004 126.319 75.252L127.531 75.168ZM135.518 69.96H136.658V71.64H139.154V72.648H136.658V76.128C136.658 76.668 136.946 76.992 137.486 76.992H139.142V78H137.414C136.082 78 135.518 77.292 135.518 76.176V72.648H133.706V71.64H135.518V69.96ZM143.769 78.144C142.005 78.144 140.829 76.824 140.829 74.82C140.829 72.816 142.005 71.496 143.769 71.496C145.533 71.496 146.709 72.816 146.709 74.82C146.709 76.824 145.533 78.144 143.769 78.144ZM142.029 74.82C142.029 76.224 142.665 77.076 143.769 77.076C144.873 77.076 145.509 76.224 145.509 74.82C145.509 73.416 144.873 72.564 143.769 72.564C142.665 72.564 142.029 73.416 142.029 74.82ZM150.857 71.64L150.941 72.84C151.169 72.024 151.685 71.64 152.525 71.64H153.821V72.648H152.561C151.613 72.648 151.181 73.188 151.181 74.244V76.992H153.209V78H148.397V76.992H150.029V72.648H148.397V71.64H150.857ZM155.424 73.536C155.664 72.3 156.72 71.496 158.064 71.496C159.612 71.496 160.62 72.396 160.62 74.16V76.572C160.62 76.86 160.74 76.992 161.016 76.992H161.28V78H160.956C160.188 78 159.732 77.592 159.624 77.016C159.372 77.616 158.628 78.144 157.632 78.144C156.348 78.144 155.316 77.472 155.316 76.332C155.316 75.024 156.3 74.64 157.752 74.376L159.48 74.028C159.456 73.044 158.904 72.564 158.052 72.564C157.32 72.564 156.78 72.996 156.636 73.62L155.424 73.536ZM156.528 76.308C156.528 76.764 156.924 77.148 157.776 77.148C158.748 77.136 159.492 76.464 159.492 75.312V75.024L158.124 75.264C157.224 75.42 156.516 75.504 156.528 76.308ZM165.151 77.664C163.579 77.664 162.463 76.404 162.463 74.616C162.463 72.768 163.579 71.496 165.151 71.496C166.003 71.496 166.759 71.964 167.047 72.636L167.059 71.64H168.151V77.304C168.139 79.044 167.047 79.944 165.343 79.944C163.951 79.944 162.943 79.212 162.655 78.108L163.855 78.024C164.095 78.588 164.611 78.924 165.343 78.924C166.387 78.924 166.999 78.444 167.011 77.544V76.596C166.675 77.22 165.919 77.664 165.151 77.664ZM163.675 74.604C163.675 75.816 164.311 76.668 165.367 76.668C166.387 76.668 167.023 75.816 167.035 74.604C167.059 73.404 166.411 72.552 165.367 72.552C164.311 72.552 163.675 73.404 163.675 74.604ZM169.695 74.82C169.695 72.804 170.859 71.496 172.647 71.496C174.087 71.496 175.371 72.444 175.467 74.712V75.144H170.931C171.015 76.368 171.627 77.076 172.647 77.076C173.295 77.076 173.871 76.704 174.147 76.056L175.371 76.164C174.999 77.376 173.919 78.144 172.647 78.144C170.859 78.144 169.695 76.836 169.695 74.82ZM170.943 74.22H174.219C174.051 73.008 173.391 72.564 172.647 72.564C171.711 72.564 171.111 73.176 170.943 74.22ZM178.99 76.524H180.502V78H178.99V76.524ZM188.369 73.632C188.237 72.948 187.613 72.564 186.857 72.564C186.233 72.564 185.657 72.864 185.681 73.464C185.681 74.088 186.437 74.244 187.169 74.436C188.393 74.736 189.593 75.18 189.593 76.356C189.593 77.604 188.393 78.144 187.073 78.144C185.585 78.144 184.373 77.304 184.289 75.984L185.489 75.912C185.597 76.632 186.245 77.076 187.073 77.076C187.721 77.076 188.381 76.908 188.381 76.296C188.381 75.672 187.565 75.552 186.857 75.384C185.645 75.096 184.481 74.64 184.481 73.5C184.469 72.228 185.621 71.496 186.965 71.496C188.297 71.496 189.341 72.3 189.545 73.56L188.369 73.632ZM191.28 74.82C191.28 72.804 192.444 71.496 194.232 71.496C195.672 71.496 196.956 72.444 197.052 74.712V75.144H192.516C192.6 76.368 193.212 77.076 194.232 77.076C194.88 77.076 195.456 76.704 195.732 76.056L196.956 76.164C196.584 77.376 195.504 78.144 194.232 78.144C192.444 78.144 191.28 76.836 191.28 74.82ZM192.528 74.22H195.804C195.636 73.008 194.976 72.564 194.232 72.564C193.296 72.564 192.696 73.176 192.528 74.22ZM200.276 69.96H201.416V71.64H203.912V72.648H201.416V76.128C201.416 76.668 201.704 76.992 202.244 76.992H203.9V78H202.172C200.84 78 200.276 77.292 200.276 76.176V72.648H198.464V71.64H200.276V69.96ZM211.047 69.48V70.596H209.115V76.884H211.107V78H205.947V76.884H207.939V70.596H206.007V69.48H211.047ZM214.666 69.96H215.806V71.64H218.302V72.648H215.806V76.128C215.806 76.668 216.094 76.992 216.634 76.992H218.29V78H216.562C215.23 78 214.666 77.292 214.666 76.176V72.648H212.854V71.64H214.666V69.96ZM220.062 74.82C220.062 72.804 221.226 71.496 223.014 71.496C224.454 71.496 225.738 72.444 225.834 74.712V75.144H221.298C221.382 76.368 221.994 77.076 223.014 77.076C223.662 77.076 224.238 76.704 224.514 76.056L225.738 76.164C225.366 77.376 224.286 78.144 223.014 78.144C221.226 78.144 220.062 76.836 220.062 74.82ZM221.31 74.22H224.586C224.418 73.008 223.758 72.564 223.014 72.564C222.078 72.564 221.478 73.176 221.31 74.22ZM227.017 71.64H228.049L228.085 72.516C228.325 71.856 228.757 71.496 229.381 71.496C229.945 71.496 230.293 71.856 230.485 72.66C230.713 71.94 231.205 71.496 231.853 71.496C232.825 71.496 233.269 72.324 233.269 74.112V78H232.129V74.112C232.129 72.924 231.961 72.468 231.505 72.468C231.001 72.468 230.713 73.044 230.713 74.112V78H229.573V74.112C229.573 72.936 229.393 72.468 228.889 72.468C228.433 72.468 228.169 73.044 228.169 74.112V78H227.017V71.64ZM239.12 68.76C236.504 71.964 236.504 75.876 239.12 79.08H238.124C235.22 75.972 235.22 71.868 238.124 68.76H239.12ZM243.94 69.48H245.068V70.428L244.912 73.428H244.108L243.94 70.428V69.48ZM302.822 78L301.946 79.92H301.298L301.934 78H301.31V76.524H302.822V78ZM66.2888 88.86C66.1568 88.056 65.5088 87.564 64.7768 87.564C63.6728 87.564 63.0368 88.416 63.0368 89.82C63.0368 91.224 63.6728 92.076 64.7768 92.076C65.5448 92.076 66.1928 91.56 66.3368 90.684L67.5488 90.756C67.3448 92.22 66.1688 93.144 64.7768 93.144C62.9888 93.144 61.8368 91.836 61.8368 89.82C61.8368 87.804 62.9888 86.496 64.7768 86.496C66.1208 86.496 67.3208 87.384 67.4888 88.788L66.2888 88.86ZM69.0801 88.536C69.3201 87.3 70.3761 86.496 71.7201 86.496C73.2681 86.496 74.2761 87.396 74.2761 89.16V91.572C74.2761 91.86 74.3961 91.992 74.6721 91.992H74.9361V93H74.6121C73.8441 93 73.3881 92.592 73.2801 92.016C73.0281 92.616 72.2841 93.144 71.2881 93.144C70.0041 93.144 68.9721 92.472 68.9721 91.332C68.9721 90.024 69.9561 89.64 71.4081 89.376L73.1361 89.028C73.1121 88.044 72.5601 87.564 71.7081 87.564C70.9761 87.564 70.4361 87.996 70.2921 88.62L69.0801 88.536ZM70.1841 91.308C70.1841 91.764 70.5801 92.148 71.4321 92.148C72.4041 92.136 73.1481 91.464 73.1481 90.312V90.024L71.7801 90.264C70.8801 90.42 70.1721 90.504 70.1841 91.308ZM78.9034 86.64L78.9874 87.84C79.2154 87.024 79.7314 86.64 80.5714 86.64H81.8674V87.648H80.6074C79.6594 87.648 79.2274 88.188 79.2274 89.244V91.992H81.2554V93H76.4434V91.992H78.0754V87.648H76.4434V86.64H78.9034ZM85.1508 84.96H86.2908V86.64H88.7868V87.648H86.2908V91.128C86.2908 91.668 86.5788 91.992 87.1188 91.992H88.7748V93H87.0468C85.7148 93 85.1508 92.292 85.1508 91.176V87.648H83.3388V86.64H85.1508V84.96ZM92.6461 91.524H94.1581V93H92.6461V91.524ZM101.593 86.64V91.992H103.717V93H97.9694V91.992H100.441V87.648H98.1974V86.64H101.593ZM100.333 85.728V84.48H101.593V85.728H100.333ZM110.457 84.48V93H109.401L109.365 92.088C109.017 92.748 108.357 93.144 107.397 93.144C105.621 93.144 104.769 91.608 104.769 89.82C104.769 88.032 105.621 86.496 107.397 86.496C108.309 86.496 108.945 86.844 109.305 87.492V84.48H110.457ZM105.969 89.82C105.969 91.008 106.473 92.076 107.697 92.076C108.897 92.076 109.413 90.984 109.413 89.82C109.413 88.62 108.897 87.516 107.697 87.516C106.473 87.516 105.969 88.596 105.969 89.82ZM114.172 83.76C117.076 86.868 117.076 90.972 114.172 94.08H113.176C115.792 90.876 115.792 86.964 113.176 83.76H114.172ZM121.451 87.408H122.963V88.884H121.451V87.408ZM121.451 94.92L122.087 93H121.463V91.524H122.975V93L122.099 94.92H121.451ZM135.518 99.96H136.658V101.64H139.154V102.648H136.658V106.128C136.658 106.668 136.946 106.992 137.486 106.992H139.142V108H137.414C136.082 108 135.518 107.292 135.518 106.176V102.648H133.706V101.64H135.518V99.96ZM145.581 98.76C142.965 101.964 142.965 105.876 145.581 109.08H144.585C141.681 105.972 141.681 101.868 144.585 98.76H145.581ZM152.633 103.86C152.501 103.056 151.853 102.564 151.121 102.564C150.017 102.564 149.381 103.416 149.381 104.82C149.381 106.224 150.017 107.076 151.121 107.076C151.889 107.076 152.537 106.56 152.681 105.684L153.893 105.756C153.689 107.22 152.513 108.144 151.121 108.144C149.333 108.144 148.181 106.836 148.181 104.82C148.181 102.804 149.333 101.496 151.121 101.496C152.465 101.496 153.665 102.384 153.833 103.788L152.633 103.86ZM155.424 103.536C155.664 102.3 156.72 101.496 158.064 101.496C159.612 101.496 160.62 102.396 160.62 104.16V106.572C160.62 106.86 160.74 106.992 161.016 106.992H161.28V108H160.956C160.188 108 159.732 107.592 159.624 107.016C159.372 107.616 158.628 108.144 157.632 108.144C156.348 108.144 155.316 107.472 155.316 106.332C155.316 105.024 156.3 104.64 157.752 104.376L159.48 104.028C159.456 103.044 158.904 102.564 158.052 102.564C157.32 102.564 156.78 102.996 156.636 103.62L155.424 103.536ZM156.528 106.308C156.528 106.764 156.924 107.148 157.776 107.148C158.748 107.136 159.492 106.464 159.492 105.312V105.024L158.124 105.264C157.224 105.42 156.516 105.504 156.528 106.308ZM165.247 101.64L165.331 102.84C165.559 102.024 166.075 101.64 166.915 101.64H168.211V102.648H166.951C166.003 102.648 165.571 103.188 165.571 104.244V106.992H167.599V108H162.787V106.992H164.419V102.648H162.787V101.64H165.247ZM171.495 99.96H172.635V101.64H175.131V102.648H172.635V106.128C172.635 106.668 172.923 106.992 173.463 106.992H175.119V108H173.391C172.059 108 171.495 107.292 171.495 106.176V102.648H169.683V101.64H171.495V99.96ZM178.93 98.76C181.834 101.868 181.834 105.972 178.93 109.08H177.934C180.55 105.876 180.55 101.964 177.934 98.76H178.93ZM186.209 102.408H187.721V103.884H186.209V102.408ZM186.209 109.92L186.845 108H186.221V106.524H187.733V108L186.857 109.92H186.209ZM67.1048 119.556C65.7128 119.532 65.2208 119.952 65.2208 121.08V122.052C65.2208 123.336 64.2968 124.212 62.9288 124.212H62.2928V123.156C63.6248 123.192 64.1168 122.868 64.1168 122.04V121.008C64.1168 119.928 64.7288 119.148 65.6408 118.992V118.956C64.7528 118.812 64.1168 118.032 64.1168 116.964V115.932C64.1168 115.104 63.6248 114.768 62.2928 114.816V113.76H62.9288C64.2968 113.76 65.2208 114.648 65.2208 115.932V116.892C65.2208 118.02 65.7128 118.44 67.1048 118.416V119.556ZM71.0001 113.76C73.9041 116.868 73.9041 120.972 71.0001 124.08H70.0041C72.6201 120.876 72.6201 116.964 70.0041 113.76H71.0001ZM78.2794 117.408H79.7914V118.884H78.2794V117.408ZM78.2794 124.92L78.9154 123H78.2914V121.524H79.8034V123L78.9274 124.92H78.2794Z" fill="#98999D"/>
<path d="M253.367 73.86C253.235 73.056 252.587 72.564 251.855 72.564C250.751 72.564 250.115 73.416 250.115 74.82C250.115 76.224 250.751 77.076 251.855 77.076C252.623 77.076 253.271 76.56 253.415 75.684L254.627 75.756C254.423 77.22 253.247 78.144 251.855 78.144C250.067 78.144 248.915 76.836 248.915 74.82C248.915 72.804 250.067 71.496 251.855 71.496C253.199 71.496 254.399 72.384 254.567 73.788L253.367 73.86ZM256.158 73.536C256.398 72.3 257.454 71.496 258.798 71.496C260.346 71.496 261.354 72.396 261.354 74.16V76.572C261.354 76.86 261.474 76.992 261.75 76.992H262.014V78H261.69C260.922 78 260.466 77.592 260.358 77.016C260.106 77.616 259.362 78.144 258.366 78.144C257.082 78.144 256.05 77.472 256.05 76.332C256.05 75.024 257.034 74.64 258.486 74.376L260.214 74.028C260.19 73.044 259.638 72.564 258.786 72.564C258.054 72.564 257.514 72.996 257.37 73.62L256.158 73.536ZM257.262 76.308C257.262 76.764 257.658 77.148 258.51 77.148C259.482 77.136 260.226 76.464 260.226 75.312V75.024L258.858 75.264C257.958 75.42 257.25 75.504 257.262 76.308ZM265.982 71.64L266.066 72.84C266.294 72.024 266.81 71.64 267.65 71.64H268.946V72.648H267.686C266.738 72.648 266.306 73.188 266.306 74.244V76.992H268.334V78H263.522V76.992H265.154V72.648H263.522V71.64H265.982ZM272.229 69.96H273.369V71.64H275.865V72.648H273.369V76.128C273.369 76.668 273.657 76.992 274.197 76.992H275.853V78H274.125C272.793 78 272.229 77.292 272.229 76.176V72.648H270.417V71.64H272.229V69.96ZM277.636 78.504H283.324V79.56H277.636V78.504ZM288.672 71.64V76.992H290.796V78H285.048V76.992H287.52V72.648H285.276V71.64H288.672ZM287.412 70.728V69.48H288.672V70.728H287.412ZM297.535 69.48V78H296.479L296.443 77.088C296.095 77.748 295.435 78.144 294.475 78.144C292.699 78.144 291.847 76.608 291.847 74.82C291.847 73.032 292.699 71.496 294.475 71.496C295.387 71.496 296.023 71.844 296.383 72.492V69.48H297.535ZM293.047 74.82C293.047 76.008 293.551 77.076 294.775 77.076C295.975 77.076 296.491 75.984 296.491 74.82C296.491 73.62 295.975 72.516 294.775 72.516C293.551 72.516 293.047 73.596 293.047 74.82Z" fill="#29A5FF"/>
<path d="M94.8301 103.632C94.6981 102.948 94.0741 102.564 93.3181 102.564C92.6941 102.564 92.1181 102.864 92.1421 103.464C92.1421 104.088 92.8981 104.244 93.6301 104.436C94.8541 104.736 96.0541 105.18 96.0541 106.356C96.0541 107.604 94.8541 108.144 93.5341 108.144C92.0461 108.144 90.8341 107.304 90.7501 105.984L91.9501 105.912C92.0581 106.632 92.7061 107.076 93.5341 107.076C94.1821 107.076 94.8421 106.908 94.8421 106.296C94.8421 105.672 94.0261 105.552 93.3181 105.384C92.1061 105.096 90.9421 104.64 90.9421 103.5C90.9301 102.228 92.0821 101.496 93.4261 101.496C94.7581 101.496 95.8021 102.3 96.0061 103.56L94.8301 103.632ZM97.7414 104.82C97.7414 102.804 98.9054 101.496 100.693 101.496C102.133 101.496 103.417 102.444 103.513 104.712V105.144H98.9774C99.0614 106.368 99.6734 107.076 100.693 107.076C101.341 107.076 101.917 106.704 102.193 106.056L103.417 106.164C103.045 107.376 101.965 108.144 100.693 108.144C98.9054 108.144 97.7414 106.836 97.7414 104.82ZM98.9894 104.22H102.265C102.097 103.008 101.437 102.564 100.693 102.564C99.7574 102.564 99.1574 103.176 98.9894 104.22ZM106.737 99.96H107.877V101.64H110.373V102.648H107.877V106.128C107.877 106.668 108.165 106.992 108.705 106.992H110.361V108H108.633C107.301 108 106.737 107.292 106.737 106.176V102.648H104.925V101.64H106.737V99.96ZM118.216 105.12C117.916 107.028 116.776 108.192 115.156 108.192C113.032 108.192 111.82 106.476 111.82 103.752C111.82 101.004 113.032 99.288 115.156 99.288C116.68 99.288 117.808 100.368 118.156 102.18L116.908 102.252C116.644 101.028 115.996 100.404 115.144 100.404C113.8 100.404 113.056 101.604 113.056 103.752C113.056 105.888 113.8 107.076 115.144 107.076C116.08 107.076 116.74 106.404 116.98 105.06L118.216 105.12ZM119.447 103.536C119.687 102.3 120.743 101.496 122.087 101.496C123.635 101.496 124.643 102.396 124.643 104.16V106.572C124.643 106.86 124.763 106.992 125.039 106.992H125.303V108H124.979C124.211 108 123.755 107.592 123.647 107.016C123.395 107.616 122.651 108.144 121.655 108.144C120.371 108.144 119.339 107.472 119.339 106.332C119.339 105.024 120.323 104.64 121.775 104.376L123.503 104.028C123.479 103.044 122.927 102.564 122.075 102.564C121.343 102.564 120.803 102.996 120.659 103.62L119.447 103.536ZM120.551 106.308C120.551 106.764 120.947 107.148 121.799 107.148C122.771 107.136 123.515 106.464 123.515 105.312V105.024L122.147 105.264C121.247 105.42 120.539 105.504 120.551 106.308ZM129.271 101.64L129.355 102.84C129.583 102.024 130.099 101.64 130.939 101.64H132.235V102.648H130.975C130.027 102.648 129.595 103.188 129.595 104.244V106.992H131.623V108H126.811V106.992H128.443V102.648H126.811V101.64H129.271Z" fill="#FF358A"/>
<path d="M48.092 48H46.64V42H44.456V40.98H44.936C45.524 40.98 45.968 40.86 46.28 40.596C46.556 40.356 46.736 40.02 46.82 39.576L46.844 39.456H48.092V48Z" fill="#BEBEBE"/>
<path d="M49.888 63.2005H43.888C43.912 62.4805 44.068 61.8565 44.356 61.3405C44.644 60.8245 45.124 60.3445 45.772 59.9125L47.332 58.8445C48.028 58.3885 48.376 57.8365 48.376 57.2005C48.376 56.7445 48.244 56.3965 47.992 56.1325C47.728 55.8805 47.38 55.7485 46.924 55.7485C46.456 55.7485 46.096 55.8925 45.832 56.1805C45.568 56.4685 45.448 56.8885 45.448 57.4285V57.6205H44.02V57.4525C44.02 56.5405 44.284 55.8325 44.812 55.3045C45.34 54.7765 46.048 54.5125 46.948 54.5125C47.812 54.5125 48.52 54.7525 49.072 55.2205C49.6 55.7005 49.876 56.3365 49.876 57.1285C49.876 58.2085 49.312 59.1205 48.196 59.8525L46.924 60.6685C46.468 60.9565 46.168 61.1965 46.012 61.3645C45.844 61.5445 45.76 61.7365 45.736 61.9525H49.888V63.2005Z" fill="#BEBEBE"/>
<path d="M46.948 78.593C45.904 78.593 45.088 78.329 44.512 77.789C43.936 77.261 43.636 76.529 43.612 75.593H45.052C45.076 76.169 45.244 76.601 45.568 76.901C45.892 77.213 46.348 77.357 46.936 77.357C47.488 77.357 47.92 77.225 48.22 76.961C48.52 76.697 48.676 76.349 48.676 75.893C48.676 75.461 48.52 75.113 48.232 74.873C47.944 74.633 47.524 74.513 46.984 74.513H46.216V73.361H46.792C47.248 73.361 47.608 73.265 47.86 73.049C48.112 72.845 48.244 72.545 48.244 72.161C48.244 71.777 48.112 71.465 47.86 71.249C47.596 71.033 47.236 70.925 46.768 70.925C46.276 70.925 45.904 71.057 45.664 71.297C45.424 71.537 45.292 71.933 45.268 72.461H43.864C43.888 71.561 44.164 70.877 44.668 70.409C45.172 69.941 45.892 69.701 46.828 69.701C47.704 69.701 48.4 69.917 48.928 70.325C49.456 70.733 49.72 71.285 49.72 71.957C49.72 72.833 49.288 73.433 48.436 73.769V73.793C49 73.913 49.432 74.165 49.744 74.525C50.044 74.885 50.2 75.353 50.2 75.905C50.2 76.721 49.9 77.369 49.324 77.849C48.724 78.353 47.932 78.593 46.948 78.593Z" fill="#BEBEBE"/>
<path d="M48.916 85.0575V90.4935H50.248V91.6935H48.916V93.6015H47.476V91.6935H43.564V90.2535L47.548 85.0575H48.916ZM44.884 90.4935H47.476V87.1455H47.452L44.884 90.4935Z" fill="#BEBEBE"/>
<path d="M46.84 108.994C45.976 108.994 45.28 108.778 44.728 108.346C44.176 107.914 43.852 107.302 43.756 106.534L45.184 106.462C45.256 106.882 45.448 107.206 45.748 107.434C46.036 107.662 46.408 107.77 46.864 107.77C47.392 107.77 47.8 107.614 48.112 107.302C48.412 106.99 48.568 106.558 48.568 106.03C48.568 105.502 48.412 105.082 48.112 104.77C47.8 104.458 47.38 104.302 46.84 104.302C46.264 104.302 45.772 104.518 45.376 104.938L43.984 104.806L44.812 100.258H49.516V101.542H45.868L45.496 103.594L45.52 103.606C46.024 103.27 46.6 103.09 47.224 103.09C48.064 103.09 48.748 103.366 49.264 103.894C49.768 104.434 50.032 105.13 50.032 105.982C50.032 106.87 49.744 107.59 49.168 108.154C48.592 108.718 47.824 108.994 46.84 108.994Z" fill="#BEBEBE"/>
<path d="M47.26 118.303C48.124 118.303 48.808 118.567 49.324 119.095C49.84 119.647 50.104 120.343 50.104 121.183C50.104 122.083 49.816 122.803 49.252 123.355C48.676 123.907 47.92 124.183 47.008 124.183C45.976 124.183 45.172 123.835 44.596 123.139C43.996 122.407 43.696 121.327 43.696 119.887C43.696 118.399 43.972 117.259 44.548 116.467C45.112 115.675 45.928 115.267 47.008 115.267C47.8 115.267 48.46 115.483 48.964 115.891C49.468 116.311 49.768 116.875 49.84 117.571H48.448C48.376 117.235 48.22 116.959 47.956 116.755C47.692 116.551 47.38 116.443 46.996 116.443C45.784 116.443 45.148 117.427 45.088 119.383C45.58 118.663 46.3 118.303 47.26 118.303ZM47.008 122.971C47.512 122.971 47.908 122.815 48.208 122.491C48.496 122.167 48.652 121.735 48.652 121.207C48.652 120.679 48.496 120.259 48.196 119.947C47.884 119.635 47.488 119.467 46.996 119.467C46.492 119.467 46.096 119.635 45.784 119.947C45.472 120.259 45.316 120.679 45.316 121.183C45.316 121.723 45.472 122.155 45.784 122.479C46.096 122.815 46.504 122.971 47.008 122.971Z" fill="#BEBEBE"/>
<ellipse cx="40.5091" cy="12.3835" rx="3.50911" ry="3.38354" fill="#C4C5C6"/>
<ellipse cx="49.5326" cy="12.3835" rx="3.50911" ry="3.38354" fill="#C4C5C6"/>
<ellipse cx="58.556" cy="12.3835" rx="3.50911" ry="3.38354" fill="#C4C5C6"/>
<path d="M111 39L111 49" stroke="#6E29FF" stroke-linecap="round" stroke-linejoin="round"/>
<circle cx="111" cy="33" r="4.25" fill="url(#paint2_linear_257_984)" stroke="#6E29FF" stroke-width="0.5"/>
<path d="M299 67L299 79" stroke="#29A5FF" stroke-linecap="round" stroke-linejoin="round"/>
<circle cx="299" cy="61" r="4.25" fill="url(#paint3_linear_257_984)" stroke="#29A5FF" stroke-width="0.5"/>
<path d="M133 98L133 110" stroke="#FF358A" stroke-linecap="round" stroke-linejoin="round"/>
<circle cx="133" cy="92" r="4.25" fill="url(#paint4_linear_257_984)" stroke="#FF4694" stroke-width="0.5"/>
<rect x="264" y="126" width="35" height="11" fill="#29A5FF"/>
<path d="M276.1 134.6C275.75 134.95 275.25 135.12 274.59 135.12C273.93 135.12 273.41 134.94 273.05 134.58C272.68 134.24 272.5 133.74 272.5 133.1V132.57H273.43V133.05C273.43 133.88 273.82 134.29 274.6 134.29C275.32 134.29 275.69 133.88 275.69 133.05V127.88H276.62V133.08C276.62 133.75 276.44 134.26 276.1 134.6ZM280.449 135.13C279.699 135.13 279.099 134.88 278.659 134.38C278.199 133.88 277.969 133.23 277.969 132.42C277.969 131.6 278.199 130.94 278.669 130.45C279.129 129.96 279.729 129.71 280.479 129.71C281.199 129.71 281.799 129.95 282.259 130.43C282.709 130.93 282.939 131.58 282.939 132.38C282.939 133.2 282.699 133.86 282.239 134.36C281.759 134.88 281.169 135.13 280.449 135.13ZM280.449 134.36C280.929 134.36 281.319 134.18 281.599 133.82C281.879 133.46 282.019 132.98 282.019 132.38C282.019 131.8 281.879 131.33 281.599 130.99C281.319 130.65 280.939 130.48 280.449 130.48C279.959 130.48 279.579 130.66 279.299 131C279.019 131.35 278.889 131.82 278.889 132.42C278.889 133.01 279.029 133.48 279.309 133.83C279.589 134.19 279.969 134.36 280.449 134.36ZM288.726 132.3V132.64H284.856C284.866 133.2 285.006 133.63 285.286 133.93C285.556 134.23 285.936 134.37 286.416 134.37C287.126 134.37 287.606 134.03 287.846 133.34L288.686 133.44C288.526 133.98 288.236 134.39 287.836 134.68C287.436 134.98 286.946 135.12 286.386 135.12C285.616 135.12 285.016 134.87 284.596 134.36C284.156 133.86 283.936 133.21 283.936 132.4C283.936 131.6 284.146 130.95 284.586 130.45C285.006 129.97 285.606 129.72 286.366 129.72C287.086 129.72 287.666 129.95 288.086 130.41C288.506 130.87 288.726 131.5 288.726 132.3ZM287.396 130.86C287.136 130.6 286.796 130.47 286.376 130.47C285.956 130.47 285.616 130.6 285.346 130.85C285.076 131.11 284.916 131.49 284.866 131.98H287.866C287.806 131.5 287.646 131.13 287.396 130.86Z" fill="white"/>
<g clip-path="url(#clip0_257_984)">
<path d="M256.667 118.667L263.75 121.613L260.671 122.658L259.612 125.75L256.667 118.667Z" fill="#29A5FF" stroke="#29A5FF" stroke-linecap="round" stroke-linejoin="round"/>
</g>
<rect y="74" width="35" height="11" fill="#6E29FF"/>
<path d="M7 83.17C6 83.17 5.2 82.82 4.58 82.12C3.95 81.44 3.64 80.54 3.64 79.44C3.64 78.36 3.95 77.47 4.58 76.78C5.2 76.1 6 75.75 7 75.75C8 75.75 8.81 76.1 9.44 76.78C10.06 77.48 10.37 78.36 10.37 79.44C10.37 80.55 10.06 81.45 9.44 82.13C8.8 82.83 7.99 83.17 7 83.17ZM5.26 81.55C5.7 82.08 6.29 82.34 7.01 82.34C7.73 82.34 8.31 82.08 8.76 81.55C9.2 81.03 9.42 80.33 9.42 79.44C9.42 78.57 9.19 77.88 8.75 77.36C8.3 76.84 7.72 76.58 7.01 76.58C6.29 76.58 5.71 76.84 5.26 77.36C4.81 77.88 4.59 78.57 4.59 79.44C4.59 80.32 4.81 81.03 5.26 81.55ZM12.7278 83H11.8078V75.88H12.7278V83ZM15.2473 76.87H14.3273V75.88H15.2473V76.87ZM15.2473 83H14.3273V77.84H15.2473V83ZM19.1669 80.82L20.1469 77.84H21.0769L19.1869 83H18.2769L16.2969 77.84H17.2869L18.3169 80.82L18.7469 82.21L19.1669 80.82ZM26.4248 80.3V80.64H22.5548C22.5648 81.2 22.7048 81.63 22.9848 81.93C23.2548 82.23 23.6348 82.37 24.1148 82.37C24.8248 82.37 25.3048 82.03 25.5448 81.34L26.3848 81.44C26.2248 81.98 25.9348 82.39 25.5348 82.68C25.1348 82.98 24.6448 83.12 24.0848 83.12C23.3148 83.12 22.7148 82.87 22.2948 82.36C21.8548 81.86 21.6348 81.21 21.6348 80.4C21.6348 79.6 21.8448 78.95 22.2848 78.45C22.7048 77.97 23.3048 77.72 24.0648 77.72C24.7848 77.72 25.3648 77.95 25.7848 78.41C26.2048 78.87 26.4248 79.5 26.4248 80.3ZM25.0948 78.86C24.8348 78.6 24.4948 78.47 24.0748 78.47C23.6548 78.47 23.3148 78.6 23.0448 78.85C22.7748 79.11 22.6148 79.49 22.5648 79.98H25.5648C25.5048 79.5 25.3448 79.13 25.0948 78.86ZM30.2658 77.7C30.3658 77.7 30.4258 77.71 30.4558 77.71V78.61C30.4058 78.61 30.2958 78.6 30.1258 78.6C29.7458 78.6 29.4158 78.74 29.1258 79.02C28.8258 79.3 28.6658 79.69 28.6458 80.18V83H27.7258V77.84H28.5858V78.88C28.9458 78.1 29.5058 77.7 30.2658 77.7Z" fill="white"/>
<path d="M43.3333 65.6667L36.25 68.6125L39.3292 69.6584L40.3875 72.75L43.3333 65.6667Z" fill="#6E29FF" stroke="#6E29FF" stroke-linecap="round" stroke-linejoin="round"/>
<defs>
<linearGradient id="paint0_linear_257_984" x1="177" y1="0" x2="177" y2="187" gradientUnits="userSpaceOnUse">
<stop stop-color="#4C4E51" stop-opacity="0.47"/>
<stop offset="1" stop-color="white"/>
</linearGradient>
<linearGradient id="paint1_linear_257_984" x1="177" y1="3" x2="177" y2="219" gradientUnits="userSpaceOnUse">
<stop stop-color="#E7E8E9"/>
<stop offset="1" stop-color="white"/>
</linearGradient>
<linearGradient id="paint2_linear_257_984" x1="115" y1="29" x2="108" y2="37" gradientUnits="userSpaceOnUse">
<stop stop-color="white"/>
<stop offset="1" stop-color="#8A56F7"/>
</linearGradient>
<linearGradient id="paint3_linear_257_984" x1="302" y1="58" x2="296" y2="65" gradientUnits="userSpaceOnUse">
<stop stop-color="white"/>
<stop offset="1" stop-color="#29A5FF"/>
</linearGradient>
<linearGradient id="paint4_linear_257_984" x1="137" y1="88.5" x2="129" y2="95.5" gradientUnits="userSpaceOnUse">
<stop stop-color="white"/>
<stop offset="1" stop-color="#FF358A"/>
</linearGradient>
<clipPath id="clip0_257_984">
<rect width="10" height="10" fill="white" transform="matrix(-4.37114e-08 1 1 4.37114e-08 255 117)"/>
</clipPath>
</defs>
</svg>
