<svg width="614" height="270" viewBox="0 0 614 270" fill="none" xmlns="http://www.w3.org/2000/svg">
<g filter="url(#filter0_dd_255_832)">
<g clip-path="url(#clip0_255_832)">
<g filter="url(#filter1_dd_255_832)">
<path d="M601 3L13 3L13 247L601 247V3Z" fill="#11131F"/>
</g>
<path d="M27.2314 83.8264L33.2661 86.591V88.0346L27.2314 90.7991V89.6279L32.2714 87.3128L27.2314 84.9976V83.8264ZM49.0522 81.8517V91.5209H48.0442L48.0044 90.4859C47.6197 91.2349 46.8637 91.6843 45.7762 91.6843C43.7469 91.6843 42.8185 89.9003 42.8185 87.912C42.8185 85.9237 43.7469 84.1396 45.7762 84.1396C46.8239 84.1396 47.5402 84.5346 47.938 85.2564V81.8517H49.0522ZM43.9856 87.912C43.9856 89.2875 44.5559 90.5949 46.0149 90.5949C47.4606 90.5949 48.0442 89.2602 48.0442 87.912C48.0442 86.5093 47.4606 85.1746 46.0149 85.1746C44.5559 85.1746 43.9856 86.482 43.9856 87.912ZM56.8059 91.5209H55.7449V90.3225C55.3735 91.2622 54.5644 91.6843 53.636 91.6843C52.071 91.6843 51.3017 90.4723 51.3017 88.947V84.3031H52.4291V88.6065C52.4291 89.9548 52.8535 90.6766 53.8747 90.6766C54.9623 90.6766 55.6918 89.9548 55.6918 88.6065V84.3031H56.8059V91.5209ZM58.6975 84.3031H59.7187L59.7585 85.2972C60.0237 84.5482 60.5012 84.1396 61.2042 84.1396C61.8143 84.1396 62.1857 84.5482 62.3979 85.4879C62.6499 84.6571 63.2202 84.1396 63.9497 84.1396C65.024 84.1396 65.4882 85.0657 65.4882 87.1902V91.5209H64.3741V87.1902C64.3741 85.7194 64.1619 85.1474 63.6181 85.1474C63.008 85.1474 62.6499 85.8828 62.6499 87.1902V91.5209H61.5358V87.1902C61.5358 85.733 61.3103 85.1474 60.7002 85.1474C60.1564 85.1474 59.8247 85.8828 59.8247 87.1902V91.5209H58.6975V84.3031ZM66.6502 84.3031H67.6714L67.7112 85.2972C67.9765 84.5482 68.4539 84.1396 69.1569 84.1396C69.767 84.1396 70.1384 84.5482 70.3506 85.4879C70.6026 84.6571 71.1729 84.1396 71.9024 84.1396C72.9767 84.1396 73.4409 85.0657 73.4409 87.1902V91.5209H72.3268V87.1902C72.3268 85.7194 72.1146 85.1474 71.5708 85.1474C70.9607 85.1474 70.6026 85.8828 70.6026 87.1902V91.5209H69.4885V87.1902C69.4885 85.733 69.263 85.1474 68.6529 85.1474C68.1091 85.1474 67.7775 85.8828 67.7775 87.1902V91.5209H66.6502V84.3031ZM74.7355 84.3031H75.9292L78.038 90.2952L80.0805 84.3031H81.261L78.4226 92.4334C78.1574 93.2096 77.6534 93.5637 76.8576 93.5637H76.0088V92.5559H76.7382C77.0831 92.5559 77.2953 92.4061 77.4279 92.052L77.6799 91.3847H77.2953L74.7355 84.3031ZM86.813 84.8478H87.7812L87.5425 87.9801C87.4629 89.0287 87.569 89.5326 87.8608 89.5326C88.325 89.5326 88.5638 88.7836 88.6301 87.0949C88.7097 84.589 87.7812 82.8459 86.3621 82.8459C84.5981 82.8459 83.285 84.7389 83.1922 87.4353C83.0596 91.0851 85.0092 92.3244 87.2507 91.0307L87.6486 91.9159C84.9031 93.6182 82.0648 91.7661 82.224 87.4353C82.3301 84.1533 84.0543 81.8517 86.3886 81.8517C88.3648 81.8517 89.6911 83.9898 89.5983 87.0268C89.4657 91.0715 86.8528 91.0579 86.6406 89.233C86.3753 89.9412 85.8448 90.4178 85.301 90.4178C84.24 90.4178 83.6166 89.2466 83.8156 87.5715C83.988 85.8964 84.8236 84.7252 85.8183 84.7252C86.2692 84.7252 86.6273 84.9704 86.7732 85.3381L86.813 84.8478ZM84.8501 87.5307C84.744 88.7291 85.0358 89.5598 85.5663 89.5598C86.0968 89.5598 86.508 88.7291 86.6141 87.5307C86.7335 86.3186 86.4815 85.4743 85.9377 85.4743C85.4071 85.4743 84.9695 86.3186 84.8501 87.5307ZM93.8638 91.7388C91.808 91.7388 90.5215 89.7914 90.5215 86.6999C90.5215 83.5813 91.808 81.6338 93.8638 81.6338C95.9196 81.6338 97.2062 83.5813 97.2062 86.6999C97.2062 89.7914 95.9196 91.7388 93.8638 91.7388ZM91.7152 86.6999C91.7152 87.5988 91.8346 88.375 92.0601 89.0015L95.0973 83.3634C94.7657 82.9821 94.3413 82.7778 93.8638 82.7778C92.5508 82.7778 91.7152 84.2894 91.7152 86.6999ZM92.6171 89.9956C92.9487 90.3906 93.3731 90.5949 93.8638 90.5949C95.1769 90.5949 96.0125 89.0832 96.0125 86.6999C96.0125 85.7739 95.8931 84.984 95.6676 84.3575L92.6171 89.9956ZM101.034 89.9548H102.599V91.5209H101.034V89.9548ZM106.56 90.377H109.424V84.3575H107.09V83.3498H108.231C109.239 83.3498 109.676 82.9003 109.676 81.8517H110.565V90.377H113.204V91.5209H106.56V90.377ZM116.939 89.9548H118.504V91.5209H116.939V89.9548ZM125.675 91.7388C123.619 91.7388 122.332 89.7914 122.332 86.6999C122.332 83.5813 123.619 81.6338 125.675 81.6338C127.731 81.6338 129.017 83.5813 129.017 86.6999C129.017 89.7914 127.731 91.7388 125.675 91.7388ZM123.526 86.6999C123.526 87.5988 123.646 88.375 123.871 89.0015L126.908 83.3634C126.577 82.9821 126.152 82.7778 125.675 82.7778C124.362 82.7778 123.526 84.2894 123.526 86.6999ZM124.428 89.9956C124.76 90.3906 125.184 90.5949 125.675 90.5949C126.988 90.5949 127.824 89.0832 127.824 86.6999C127.824 85.7739 127.704 84.984 127.479 84.3575L124.428 89.9956ZM144.484 81.8517V91.5209H143.476L143.437 90.4859C143.052 91.2349 142.296 91.6843 141.208 91.6843C139.179 91.6843 138.251 89.9003 138.251 87.912C138.251 85.9237 139.179 84.1396 141.208 84.1396C142.256 84.1396 142.972 84.5346 143.37 85.2564V81.8517H144.484ZM139.418 87.912C139.418 89.2875 139.988 90.5949 141.447 90.5949C142.893 90.5949 143.476 89.2602 143.476 87.912C143.476 86.5093 142.893 85.1746 141.447 85.1746C139.988 85.1746 139.418 86.482 139.418 87.912ZM146.43 87.912C146.43 85.6241 147.703 84.1396 149.653 84.1396C151.204 84.1396 152.584 85.1883 152.703 87.7486L152.716 88.2661H147.623C147.716 89.7369 148.446 90.5949 149.653 90.5949C150.409 90.5949 151.085 90.1454 151.403 89.3828L152.597 89.4781C152.186 90.84 151.005 91.6843 149.653 91.6843C147.703 91.6843 146.43 90.1999 146.43 87.912ZM147.637 87.2583H151.496C151.297 85.7466 150.515 85.2291 149.653 85.2291C148.538 85.2291 147.822 85.9782 147.637 87.2583ZM160.748 84.3031L158.188 91.5209H156.783L154.223 84.3031H155.416L157.486 90.3225L159.555 84.3031H160.748ZM170.845 92.7466L174.771 81.0482H175.925L171.999 92.7466H170.845ZM184.049 91.5209H182.988V90.3225C182.617 91.2622 181.808 91.6843 180.88 91.6843C179.314 91.6843 178.545 90.4723 178.545 88.947V84.3031H179.673V88.6065C179.673 89.9548 180.097 90.6766 181.118 90.6766C182.206 90.6766 182.935 89.9548 182.935 88.6065V84.3031H184.049V91.5209ZM191.02 86.5365C190.861 85.7194 190.105 85.2291 189.203 85.2291C188.474 85.2291 187.784 85.6105 187.797 86.3595C187.797 87.1357 188.699 87.3128 189.469 87.5307C190.795 87.8711 192.187 88.3069 192.187 89.6824C192.187 91.0987 190.821 91.6843 189.442 91.6843C187.824 91.6843 186.498 90.7447 186.405 89.2466L187.559 89.1649C187.691 90.0365 188.461 90.5949 189.442 90.5949C190.198 90.5949 191.007 90.3906 191.007 89.6143C191.007 88.8244 190.012 88.7019 189.27 88.5248C187.983 88.2116 186.63 87.7349 186.63 86.4139C186.617 84.9568 187.89 84.1396 189.323 84.1396C190.782 84.1396 191.909 85.0521 192.134 86.4548L191.02 86.5365ZM194.146 87.912C194.146 85.6241 195.419 84.1396 197.369 84.1396C198.921 84.1396 200.3 85.1883 200.419 87.7486L200.433 88.2661H195.34C195.433 89.7369 196.162 90.5949 197.369 90.5949C198.125 90.5949 198.801 90.1454 199.12 89.3828L200.313 89.4781C199.902 90.84 198.722 91.6843 197.369 91.6843C195.419 91.6843 194.146 90.1999 194.146 87.912ZM195.353 87.2583H199.213C199.014 85.7466 198.231 85.2291 197.369 85.2291C196.255 85.2291 195.539 85.9782 195.353 87.2583ZM205.083 84.3031L205.175 85.6649C205.427 84.7389 205.998 84.3031 206.926 84.3031H208.332V85.3108H206.926C205.852 85.3108 205.348 85.9781 205.348 87.2174V90.5131H207.642V91.5209H202.403V90.5131H204.234V85.3108H202.403V84.3031H205.083ZM210.608 92.7466L214.534 81.0482H215.688L211.762 92.7466H210.608ZM217.752 84.3031H218.773L218.813 85.2972C219.077 84.5482 219.556 84.1396 220.259 84.1396C220.869 84.1396 221.24 84.5482 221.453 85.4879C221.705 84.6571 222.275 84.1396 223.004 84.1396C224.079 84.1396 224.543 85.0657 224.543 87.1902V91.5209H223.429V87.1902C223.429 85.7194 223.217 85.1474 222.673 85.1474C222.063 85.1474 221.705 85.8828 221.705 87.1902V91.5209H220.591V87.1902C220.591 85.733 220.365 85.1474 219.755 85.1474C219.211 85.1474 218.878 85.8828 218.878 87.1902V91.5209H217.752V84.3031ZM231.766 91.5209H230.705V90.3225C230.333 91.2622 229.524 91.6843 228.596 91.6843C227.031 91.6843 226.262 90.4723 226.262 88.947V84.3031H227.389V88.6065C227.389 89.9548 227.813 90.6766 228.835 90.6766C229.922 90.6766 230.652 89.9548 230.652 88.6065V84.3031H231.766V91.5209ZM238.737 86.5365C238.578 85.7194 237.822 85.2291 236.92 85.2291C236.19 85.2291 235.501 85.6105 235.514 86.3595C235.514 87.1357 236.416 87.3128 237.185 87.5307C238.511 87.8711 239.904 88.3069 239.904 89.6824C239.904 91.0987 238.538 91.6843 237.158 91.6843C235.54 91.6843 234.214 90.7447 234.121 89.2466L235.275 89.1649C235.408 90.0365 236.177 90.5949 237.158 90.5949C237.914 90.5949 238.723 90.3906 238.723 89.6143C238.723 88.8244 237.729 88.7019 236.986 88.5248C235.7 88.2116 234.347 87.7349 234.347 86.4139C234.333 84.9568 235.607 84.1396 237.039 84.1396C238.498 84.1396 239.625 85.0521 239.851 86.4548L238.737 86.5365ZM241.861 87.912C241.861 85.6241 243.135 84.1396 245.084 84.1396C246.636 84.1396 248.015 85.1883 248.135 87.7486L248.148 88.2661H243.055C243.148 89.7369 243.877 90.5949 245.084 90.5949C245.84 90.5949 246.517 90.1454 246.835 89.3828L248.029 89.4781C247.618 90.84 246.437 91.6843 245.084 91.6843C243.135 91.6843 241.861 90.1999 241.861 87.912ZM243.068 87.2583H246.928C246.729 85.7466 245.946 85.2291 245.084 85.2291C243.97 85.2291 243.254 85.9782 243.068 87.2583ZM27.2314 100.85L33.2661 103.614V105.058L27.2314 107.822V106.651L32.2714 104.336L27.2314 102.021V100.85ZM43.4418 101.326H44.4498L44.4896 102.566C44.8477 101.599 45.67 101.163 46.6383 101.163C48.2431 101.163 49.0124 102.375 49.0124 103.9V108.544H47.8983V104.227C47.8983 102.892 47.4738 102.171 46.4128 102.171C45.2854 102.171 44.5559 102.892 44.5559 104.227V108.544H43.4418V101.326ZM50.9966 104.935C50.9966 102.647 52.2699 101.163 54.2196 101.163C55.7714 101.163 57.1508 102.212 57.2701 104.772L57.2834 105.289H52.1903C52.2832 106.76 53.0126 107.618 54.2196 107.618C54.9756 107.618 55.652 107.169 55.9703 106.406L57.164 106.501C56.7529 107.863 55.5724 108.708 54.2196 108.708C52.2699 108.708 50.9966 107.223 50.9966 104.935ZM52.2036 104.282H56.0632C55.8642 102.77 55.0817 102.252 54.2196 102.252C53.1055 102.252 52.3893 103.001 52.2036 104.282ZM63.8038 101.326H65.1831L62.756 104.854L65.3025 108.544H63.9364L62.053 105.739L60.1564 108.544H58.7903L61.3634 104.84L58.9229 101.326H60.289L62.053 103.968L63.8038 101.326ZM68.8784 99.4197H69.9925V101.326H72.8043V102.334H69.9925V106.556C69.9925 107.169 70.3108 107.536 70.9076 107.536H72.791V108.544H70.9076C69.4752 108.544 68.8784 107.754 68.8784 106.556V102.334H66.8624V101.326H68.8784V99.4197ZM88.8158 98.875V108.544H87.8078L87.768 107.509C87.3834 108.258 86.6273 108.708 85.5398 108.708C83.5105 108.708 82.5821 106.924 82.5821 104.935C82.5821 102.947 83.5105 101.163 85.5398 101.163C86.5876 101.163 87.3038 101.558 87.7017 102.28V98.875H88.8158ZM83.7492 104.935C83.7492 106.311 84.3196 107.618 85.7785 107.618C87.2242 107.618 87.8078 106.283 87.8078 104.935C87.8078 103.533 87.2242 102.198 85.7785 102.198C84.3196 102.198 83.7492 103.505 83.7492 104.935ZM90.7603 104.935C90.7603 102.647 92.0335 101.163 93.9832 101.163C95.535 101.163 96.9144 102.212 97.0337 104.772L97.047 105.289H91.9539C92.0468 106.76 92.7763 107.618 93.9832 107.618C94.7392 107.618 95.4156 107.169 95.7339 106.406L96.9276 106.501C96.5165 107.863 95.336 108.708 93.9832 108.708C92.0335 108.708 90.7603 107.223 90.7603 104.935ZM91.9672 104.282H95.8268C95.6278 102.77 94.8453 102.252 93.9832 102.252C92.8691 102.252 92.1529 103.001 91.9672 104.282ZM105.079 101.326L102.519 108.544H101.114L98.5538 101.326H99.7475L101.817 107.346L103.886 101.326H105.079ZM54.087 135.713L57.9598 142.591H50.2274L54.087 135.713ZM67.0613 132.921H68.6927L71.7963 141.12V132.921H72.9502V142.591H71.1862L68.2152 134.692V142.591H67.0613V132.921ZM74.8549 138.982C74.8549 136.694 76.1281 135.209 78.0778 135.209C79.6296 135.209 81.009 136.258 81.1283 138.818L81.1416 139.336H76.0485C76.1414 140.807 76.8709 141.665 78.0778 141.665C78.8338 141.665 79.5102 141.215 79.8285 140.453L81.0222 140.548C80.6111 141.91 79.4306 142.754 78.0778 142.754C76.1281 142.754 74.8549 141.27 74.8549 138.982ZM76.0618 138.328H79.9214C79.7224 136.816 78.9399 136.299 78.0778 136.299C76.9637 136.299 76.2475 137.048 76.0618 138.328ZM87.6619 135.373H89.0412L86.6141 138.9L89.1606 142.591H87.7945L85.9111 139.785L84.0145 142.591H82.6484L85.2215 138.886L82.781 135.373H84.1471L85.9111 138.015L87.6619 135.373ZM92.7365 133.466H93.8506V135.373H96.6624V136.381H93.8506V140.602C93.8506 141.215 94.1689 141.583 94.7657 141.583H96.6491V142.591H94.7657C93.3333 142.591 92.7365 141.801 92.7365 140.602V136.381H90.7205V135.373H92.7365V133.466ZM101.034 141.025H102.599V142.591H101.034V141.025ZM111.613 142.591C111.613 143.803 111.016 144.633 109.836 144.633H107.316V143.626H109.716C110.194 143.626 110.499 143.19 110.499 142.591V136.381H107.329V135.373H111.613V142.591ZM110.353 134.297V132.921H111.613V134.297H110.353ZM119.446 137.606C119.287 136.789 118.531 136.299 117.629 136.299C116.9 136.299 116.21 136.68 116.223 137.429C116.223 138.205 117.125 138.383 117.894 138.6C119.221 138.941 120.613 139.377 120.613 140.752C120.613 142.169 119.247 142.754 117.868 142.754C116.25 142.754 114.923 141.814 114.831 140.316L115.984 140.235C116.117 141.106 116.886 141.665 117.868 141.665C118.624 141.665 119.433 141.46 119.433 140.684C119.433 139.894 118.438 139.772 117.695 139.595C116.409 139.281 115.056 138.805 115.056 137.484C115.043 136.027 116.316 135.209 117.748 135.209C119.207 135.209 120.335 136.122 120.56 137.525L119.446 137.606ZM130.418 141.447H133.283V135.427H130.948V134.42H132.089C133.097 134.42 133.535 133.97 133.535 132.921H134.423V141.447H137.062V142.591H130.418V141.447ZM144.047 132.921V139.458H145.121V140.602H144.047V142.591H142.906V140.602H138.038V139.458L142.826 132.921H144.047ZM139.431 139.458H142.906V134.719L139.431 139.458ZM148.751 141.025H150.316V142.591H148.751V141.025ZM154.276 141.447H157.141V135.427H154.806V134.42H155.947C156.955 134.42 157.393 133.97 157.393 132.921H158.281V141.447H160.921V142.591H154.276V141.447ZM164.655 141.025H166.22V142.591H164.655V141.025ZM173.312 136.884C174.2 136.898 175.195 136.476 175.195 135.223C175.195 134.379 174.519 133.848 173.312 133.848C172.344 133.848 171.641 134.338 171.521 135.114L170.328 135.032C170.5 133.67 171.747 132.704 173.312 132.704C175.129 132.704 176.389 133.739 176.389 135.223C176.389 136.313 175.832 137.021 174.718 137.361C176.031 137.756 176.707 138.682 176.707 139.935C176.707 141.624 175.341 142.809 173.312 142.809C171.442 142.809 170.076 141.692 169.996 140.098L171.176 140.017C171.283 141.202 172.383 141.665 173.312 141.665C174.665 141.665 175.527 140.956 175.527 139.84C175.527 138.696 174.665 137.988 173.312 138.015L172.596 138.028V136.871L173.312 136.884ZM51.9118 154.793H56.2886V155.855H51.9118V154.793ZM67.2205 159.614V149.945H68.3611V158.47H73.3348V159.614H67.2205ZM77.9584 159.777C76.0088 159.777 74.7488 158.293 74.7488 156.005C74.7488 153.717 76.0088 152.233 77.9584 152.233C79.9081 152.233 81.1681 153.717 81.1681 156.005C81.1681 158.293 79.9081 159.777 77.9584 159.777ZM75.9159 156.005C75.9159 157.68 76.6586 158.688 77.9584 158.688C79.2582 158.688 80.001 157.68 80.001 156.005C80.001 154.33 79.2582 153.322 77.9584 153.322C76.6586 153.322 75.9159 154.33 75.9159 156.005ZM87.8476 154.82C87.6884 153.881 86.9324 153.322 86.0836 153.322C84.7838 153.322 84.041 154.33 84.041 156.005C84.041 157.68 84.7838 158.688 86.0836 158.688C86.9722 158.688 87.7282 158.089 87.9006 157.054L89.081 157.135C88.8423 158.77 87.569 159.777 86.0836 159.777C84.1339 159.777 82.8739 158.293 82.8739 156.005C82.8739 153.717 84.1339 152.233 86.0836 152.233C87.516 152.233 88.8158 153.186 89.0147 154.738L87.8476 154.82ZM90.8664 154.521C91.1316 153.159 92.2855 152.233 93.7445 152.233C95.4421 152.233 96.5695 153.24 96.5695 155.256V158.157C96.5695 158.456 96.7022 158.606 97.0072 158.606H97.2857V159.614H96.9409C96.092 159.614 95.5881 159.151 95.4687 158.497C95.1902 159.165 94.3944 159.777 93.2803 159.777C91.8876 159.777 90.747 159.015 90.747 157.721C90.747 156.237 91.8478 155.855 93.3996 155.556L95.4554 155.133C95.4422 153.908 94.779 153.322 93.7445 153.322C92.8691 153.322 92.2325 153.867 92.0601 154.616L90.8664 154.521ZM91.9142 157.721C91.9142 158.293 92.3916 158.77 93.4262 158.77C94.58 158.756 95.4819 157.939 95.4819 156.509V156.155L93.8241 156.454C92.7763 156.645 91.9142 156.713 91.9142 157.721ZM98.9384 158.606H101.657V151.797C101.657 151.211 101.419 150.952 100.875 150.952H99.2037V149.945H100.875C102.095 149.945 102.771 150.598 102.771 151.797V158.606H105.238V159.614H98.9384V158.606ZM108.987 158.048H110.552V159.614H108.987V158.048ZM108.987 154.807V153.24H110.552V154.807H108.987ZM178.704 149.945H179.818V153.363C180.23 152.587 181.052 152.233 181.914 152.233C183.506 152.233 184.275 153.445 184.275 154.97V159.614H183.161V155.379C183.161 154.044 182.736 153.322 181.675 153.322C180.548 153.322 179.818 154.044 179.818 155.379V159.614H178.704V149.945ZM188.169 150.489H189.283V152.396H192.095V153.404H189.283V157.626C189.283 158.238 189.601 158.606 190.198 158.606H192.081V159.614H190.198C188.766 159.614 188.169 158.824 188.169 157.626V153.404H186.153V152.396H188.169V150.489ZM196.122 150.489H197.236V152.396H200.048V153.404H197.236V157.626C197.236 158.238 197.555 158.606 198.152 158.606H200.035V159.614H198.152C196.719 159.614 196.122 158.824 196.122 157.626V153.404H194.106V152.396H196.122V150.489ZM202.284 161.657V152.396H203.292L203.332 153.472C203.716 152.668 204.459 152.233 205.494 152.233C207.603 152.233 208.531 154.017 208.531 156.005C208.531 157.993 207.603 159.777 205.494 159.777C204.512 159.777 203.783 159.369 203.398 158.606V161.657H202.284ZM203.279 156.005C203.279 157.353 203.876 158.688 205.308 158.688C206.754 158.688 207.337 157.38 207.337 156.005C207.337 154.63 206.754 153.322 205.308 153.322C203.876 153.322 203.279 154.657 203.279 156.005ZM212.372 158.048H213.937V159.614H212.372V158.048ZM212.372 154.807V153.24H213.937V154.807H212.372ZM218.561 160.84L222.487 149.141H223.641L219.715 160.84H218.561ZM226.514 160.84L230.44 149.141H231.593L227.668 160.84H226.514ZM234.134 158.606H236.853V151.797C236.853 151.211 236.615 150.952 236.071 150.952H234.4V149.945H236.071C237.291 149.945 237.967 150.598 237.967 151.797V158.606H240.434V159.614H234.134V158.606ZM244.965 159.777C243.015 159.777 241.755 158.293 241.755 156.005C241.755 153.717 243.015 152.233 244.965 152.233C246.915 152.233 248.175 153.717 248.175 156.005C248.175 158.293 246.915 159.777 244.965 159.777ZM242.922 156.005C242.922 157.68 243.665 158.688 244.965 158.688C246.265 158.688 247.007 157.68 247.007 156.005C247.007 154.33 246.265 153.322 244.965 153.322C243.665 153.322 242.922 154.33 242.922 156.005ZM254.855 154.82C254.696 153.881 253.94 153.322 253.091 153.322C251.791 153.322 251.048 154.33 251.048 156.005C251.048 157.68 251.791 158.688 253.091 158.688C253.979 158.688 254.735 158.089 254.908 157.054L256.088 157.135C255.85 158.77 254.576 159.777 253.091 159.777C251.141 159.777 249.881 158.293 249.881 156.005C249.881 153.717 251.141 152.233 253.091 152.233C254.523 152.233 255.823 153.186 256.022 154.738L254.855 154.82ZM257.873 154.521C258.139 153.159 259.292 152.233 260.751 152.233C262.449 152.233 263.576 153.24 263.576 155.256V158.157C263.576 158.456 263.709 158.606 264.014 158.606H264.293V159.614H263.948C263.099 159.614 262.595 159.151 262.476 158.497C262.197 159.165 261.401 159.777 260.287 159.777C258.895 159.777 257.754 159.015 257.754 157.721C257.754 156.237 258.855 155.855 260.407 155.556L262.462 155.133C262.449 153.908 261.786 153.322 260.751 153.322C259.876 153.322 259.239 153.867 259.067 154.616L257.873 154.521ZM258.921 157.721C258.921 158.293 259.399 158.77 260.433 158.77C261.587 158.756 262.489 157.939 262.489 156.509V156.155L260.831 156.454C259.783 156.645 258.921 156.713 258.921 157.721ZM265.945 158.606H268.664V151.797C268.664 151.211 268.425 150.952 267.881 150.952H266.21V149.945H267.881C269.102 149.945 269.778 150.598 269.778 151.797V158.606H272.245V159.614H265.945V158.606ZM274.137 149.945H275.251V153.363C275.662 152.587 276.485 152.233 277.347 152.233C278.939 152.233 279.708 153.445 279.708 154.97V159.614H278.594V155.379C278.594 154.044 278.169 153.322 277.108 153.322C275.981 153.322 275.251 154.044 275.251 155.379V159.614H274.137V149.945ZM284.729 159.777C282.779 159.777 281.519 158.293 281.519 156.005C281.519 153.717 282.779 152.233 284.729 152.233C286.679 152.233 287.939 153.717 287.939 156.005C287.939 158.293 286.679 159.777 284.729 159.777ZM282.686 156.005C282.686 157.68 283.429 158.688 284.729 158.688C286.029 158.688 286.771 157.68 286.771 156.005C286.771 154.33 286.029 153.322 284.729 153.322C283.429 153.322 282.686 154.33 282.686 156.005ZM294.406 154.63C294.246 153.812 293.49 153.322 292.589 153.322C291.859 153.322 291.169 153.703 291.183 154.452C291.183 155.229 292.085 155.406 292.854 155.624C294.18 155.964 295.573 156.4 295.573 157.775C295.573 159.192 294.207 159.777 292.827 159.777C291.209 159.777 289.883 158.838 289.79 157.34L290.944 157.258C291.077 158.13 291.846 158.688 292.827 158.688C293.583 158.688 294.392 158.484 294.392 157.707C294.392 156.917 293.398 156.795 292.655 156.618C291.368 156.305 290.015 155.828 290.015 154.507C290.002 153.05 291.275 152.233 292.708 152.233C294.167 152.233 295.294 153.145 295.52 154.548L294.406 154.63ZM299.507 150.489H300.622V152.396H303.433V153.404H300.622V157.626C300.622 158.238 300.94 158.606 301.537 158.606H303.42V159.614H301.537C300.104 159.614 299.507 158.824 299.507 157.626V153.404H297.491V152.396H299.507V150.489ZM307.805 158.048H309.37V159.614H307.805V158.048ZM307.805 154.807V153.24H309.37V154.807H307.805ZM316.46 153.908C317.349 153.921 318.343 153.499 318.343 152.246C318.343 151.402 317.667 150.871 316.46 150.871C315.492 150.871 314.789 151.361 314.669 152.137L313.476 152.056C313.648 150.694 314.895 149.727 316.46 149.727C318.277 149.727 319.537 150.762 319.537 152.246C319.537 153.336 318.98 154.044 317.866 154.384C319.179 154.779 319.855 155.705 319.855 156.958C319.855 158.647 318.489 159.832 316.46 159.832C314.59 159.832 313.224 158.715 313.144 157.122L314.325 157.04C314.431 158.225 315.532 158.688 316.46 158.688C317.813 158.688 318.675 157.98 318.675 156.863C318.675 155.719 317.813 155.011 316.46 155.038L315.744 155.052V153.894L316.46 153.908ZM324.493 159.832C322.437 159.832 321.151 157.884 321.151 154.793C321.151 151.674 322.437 149.727 324.493 149.727C326.549 149.727 327.835 151.674 327.835 154.793C327.835 157.884 326.549 159.832 324.493 159.832ZM322.344 154.793C322.344 155.692 322.464 156.468 322.689 157.094L325.727 151.456C325.395 151.075 324.97 150.871 324.493 150.871C323.18 150.871 322.344 152.382 322.344 154.793ZM323.246 158.089C323.578 158.484 324.002 158.688 324.493 158.688C325.806 158.688 326.642 157.176 326.642 154.793C326.642 153.867 326.522 153.077 326.297 152.451L323.246 158.089ZM332.445 159.832C330.39 159.832 329.103 157.884 329.103 154.793C329.103 151.674 330.39 149.727 332.445 149.727C334.501 149.727 335.788 151.674 335.788 154.793C335.788 157.884 334.501 159.832 332.445 159.832ZM330.297 154.793C330.297 155.692 330.416 156.468 330.642 157.094L333.679 151.456C333.347 151.075 332.923 150.871 332.445 150.871C331.132 150.871 330.297 152.382 330.297 154.793ZM331.199 158.089C331.53 158.484 331.955 158.688 332.445 158.688C333.758 158.688 334.594 157.176 334.594 154.793C334.594 153.867 334.475 153.077 334.249 152.451L331.199 158.089ZM340.398 159.832C338.342 159.832 337.055 157.884 337.055 154.793C337.055 151.674 338.342 149.727 340.398 149.727C342.454 149.727 343.74 151.674 343.74 154.793C343.74 157.884 342.454 159.832 340.398 159.832ZM338.249 154.793C338.249 155.692 338.368 156.468 338.594 157.094L341.631 151.456C341.3 151.075 340.875 150.871 340.398 150.871C339.085 150.871 338.249 152.382 338.249 154.793ZM339.151 158.089C339.483 158.484 339.907 158.688 340.398 158.688C341.711 158.688 342.546 157.176 342.546 154.793C342.546 153.867 342.427 153.077 342.202 152.451L339.151 158.089ZM57.1175 183.991C59.0937 183.991 60.3272 185.122 60.3272 186.919C60.3272 188.022 59.611 188.894 58.8152 189.166C59.6773 189.343 60.0619 189.834 60.1547 190.814L60.4067 193.66H59.2529L59.0141 190.937C58.9345 190.052 58.3775 189.766 56.9981 189.766H55.2872V193.66H54.1465V183.991H57.1175ZM55.2872 188.622H57.1175C58.404 188.622 59.1335 188.009 59.1335 186.892C59.1335 185.775 58.404 185.135 57.1175 185.135H55.2872V188.622ZM61.9932 190.052C61.9932 187.764 63.2665 186.279 65.2162 186.279C66.768 186.279 68.1473 187.328 68.2667 189.888L68.28 190.406H63.1869C63.2798 191.876 64.0092 192.734 65.2162 192.734C65.9722 192.734 66.6486 192.285 66.9669 191.522L68.1606 191.618C67.7495 192.98 66.569 193.824 65.2162 193.824C63.2665 193.824 61.9932 192.339 61.9932 190.052ZM63.2002 189.398H67.0598C66.8608 187.886 66.0783 187.369 65.2162 187.369C64.1021 187.369 63.3859 188.118 63.2002 189.398ZM70.052 188.567C70.3173 187.205 71.4712 186.279 72.9302 186.279C74.6278 186.279 75.7552 187.287 75.7552 189.302V192.203C75.7552 192.503 75.8878 192.653 76.1929 192.653H76.4714V193.66H76.1266C75.2777 193.66 74.7737 193.197 74.6544 192.544C74.3758 193.211 73.58 193.824 72.4659 193.824C71.0733 193.824 69.9327 193.061 69.9327 191.767C69.9327 190.283 71.0335 189.902 72.5853 189.602L74.6411 189.18C74.6278 187.954 73.9647 187.369 72.9302 187.369C72.0548 187.369 71.4182 187.913 71.2457 188.662L70.052 188.567ZM71.0998 191.767C71.0998 192.339 71.5773 192.816 72.6118 192.816C73.7657 192.802 74.6676 191.985 74.6676 190.555V190.201L73.0097 190.501C71.9619 190.692 71.0998 190.76 71.0998 191.767ZM83.9069 183.991V193.66H82.8988L82.8591 192.625C82.4744 193.374 81.7184 193.824 80.6309 193.824C78.6016 193.824 77.6732 192.04 77.6732 190.052C77.6732 188.063 78.6016 186.279 80.6309 186.279C81.6786 186.279 82.3949 186.674 82.7927 187.396V183.991H83.9069ZM78.8403 190.052C78.8403 191.427 79.4106 192.734 80.8696 192.734C82.3153 192.734 82.8988 191.4 82.8988 190.052C82.8988 188.649 82.3153 187.314 80.8696 187.314C79.4106 187.314 78.8403 188.622 78.8403 190.052ZM85.732 186.443H86.9257L89.0345 192.435L91.077 186.443H92.2574L89.4191 194.573C89.1539 195.349 88.6499 195.703 87.8541 195.703H87.0052V194.695H87.7347C88.0796 194.695 88.2918 194.546 88.4244 194.192L88.6764 193.524H88.2918L85.732 186.443ZM105.882 186.443V192.653H108.282V193.66H101.982V192.653H104.767V187.45H102.247V186.443H105.882ZM104.622 185.367V183.991H105.882V185.367H104.622ZM110.107 186.443H111.115L111.155 187.682C111.513 186.715 112.336 186.279 113.304 186.279C114.909 186.279 115.678 187.491 115.678 189.017V193.66H114.564V189.343C114.564 188.009 114.139 187.287 113.078 187.287C111.951 187.287 111.221 188.009 111.221 189.343V193.66H110.107V186.443ZM125.509 192.516H128.374V186.497H126.04V185.489H127.18C128.188 185.489 128.626 185.04 128.626 183.991H129.515V192.516H132.154V193.66H125.509V192.516ZM136.592 187.954C137.48 187.968 138.475 187.546 138.475 186.293C138.475 185.448 137.799 184.917 136.592 184.917C135.623 184.917 134.92 185.408 134.801 186.184L133.607 186.102C133.78 184.74 135.027 183.773 136.592 183.773C138.409 183.773 139.669 184.808 139.669 186.293C139.669 187.382 139.112 188.09 137.998 188.431C139.311 188.826 139.987 189.752 139.987 191.005C139.987 192.694 138.621 193.878 136.592 193.878C134.722 193.878 133.355 192.762 133.276 191.168L134.456 191.087C134.562 192.271 135.663 192.734 136.592 192.734C137.944 192.734 138.807 192.026 138.807 190.909C138.807 189.766 137.944 189.057 136.592 189.085L135.875 189.098V187.941L136.592 187.954ZM147.091 183.991V190.528H148.165V191.672H147.091V193.66H145.95V191.672H141.082V190.528L145.87 183.991H147.091ZM142.475 190.528H145.95V185.789L142.475 190.528ZM152.497 187.954C153.386 187.968 154.381 187.546 154.381 186.293C154.381 185.448 153.704 184.917 152.497 184.917C151.529 184.917 150.826 185.408 150.707 186.184L149.513 186.102C149.686 184.74 150.932 183.773 152.497 183.773C154.315 183.773 155.575 184.808 155.575 186.293C155.575 187.382 155.018 188.09 153.903 188.431C155.216 188.826 155.893 189.752 155.893 191.005C155.893 192.694 154.527 193.878 152.497 193.878C150.627 193.878 149.261 192.762 149.182 191.168L150.362 191.087C150.468 192.271 151.569 192.734 152.497 192.734C153.85 192.734 154.712 192.026 154.712 190.909C154.712 189.766 153.85 189.057 152.497 189.085L151.781 189.098V187.941L152.497 187.954ZM157.174 186.443H158.195L158.235 187.437C158.5 186.688 158.978 186.279 159.681 186.279C160.291 186.279 160.662 186.688 160.874 187.627C161.126 186.797 161.697 186.279 162.426 186.279C163.5 186.279 163.965 187.205 163.965 189.33V193.66H162.85V189.33C162.85 187.859 162.638 187.287 162.094 187.287C161.484 187.287 161.126 188.022 161.126 189.33V193.66H160.012V189.33C160.012 187.873 159.787 187.287 159.177 187.287C158.633 187.287 158.301 188.022 158.301 189.33V193.66H157.174V186.443ZM170.206 188.676C170.047 187.859 169.291 187.369 168.389 187.369C167.66 187.369 166.97 187.75 166.983 188.499C166.983 189.275 167.885 189.452 168.654 189.67C169.981 190.011 171.373 190.446 171.373 191.822C171.373 193.238 170.007 193.824 168.628 193.824C167.01 193.824 165.683 192.884 165.59 191.386L166.744 191.304C166.877 192.176 167.646 192.734 168.628 192.734C169.384 192.734 170.193 192.53 170.193 191.754C170.193 190.964 169.198 190.841 168.455 190.664C167.169 190.351 165.816 189.874 165.816 188.553C165.803 187.096 167.076 186.279 168.508 186.279C169.967 186.279 171.095 187.192 171.32 188.594L170.206 188.676Z" fill="#EEEFF1"/>
<path d="M36.9879 194.26C36.9879 194.137 36.9746 194.083 36.9215 194.083L36.6165 194.232C36.6165 194.164 36.5767 194.124 36.5104 194.096L36.4043 194.083C36.3114 194.083 36.2716 194.096 36.139 194.178C36.0992 194.096 36.0462 194.001 36.0064 193.919C35.6615 193.238 35.3034 192.217 35.1443 191.768C35.0647 191.536 34.9851 191.059 34.8923 190.338C34.9984 190.406 35.078 190.433 35.1177 190.433C35.1708 190.433 35.2371 190.338 35.2902 190.147C35.3167 190.188 35.3697 190.201 35.4361 190.201C35.4759 190.201 35.5289 190.188 35.5554 190.147L35.7676 189.82L36.0064 189.902H36.0196C36.0462 189.902 36.086 189.861 36.1523 189.82C36.2186 189.779 36.2716 189.752 36.3114 189.752L36.3512 189.766C36.5634 189.875 36.7093 190.065 36.7756 190.365C36.9348 191.059 37.0807 191.4 37.2531 191.4C37.399 191.4 37.598 191.223 37.8102 190.882C38.0224 190.542 38.2346 190.079 38.4733 189.52C38.4866 189.629 38.4999 189.684 38.5264 189.684C38.606 189.684 38.8049 189.207 39.2956 188.404C40.0251 187.192 41.8289 184.863 42.2931 184.536C42.638 184.291 42.9032 184.059 43.0889 183.855C43.0624 183.991 43.0359 184.087 43.0359 184.127C43.0359 184.168 43.0624 184.182 43.0889 184.182L43.4603 183.991V184.046C43.4603 184.114 43.4735 184.155 43.5133 184.155C43.5664 184.155 43.7786 183.937 43.8051 183.855L43.7786 184.046L44.2295 183.773L44.1234 184.019C44.2561 183.923 44.3622 183.869 44.4285 183.869C44.4948 183.869 44.5346 183.978 44.5346 184.046C44.5346 184.155 44.4417 184.305 44.2959 184.495C44.1367 184.713 43.7388 185.135 42.5451 186.538C42.0279 187.137 39.7333 190.338 39.2956 191.1L38.4733 192.53C38.1152 193.143 37.8897 193.538 37.7704 193.688C37.651 193.838 37.5051 193.987 37.3327 194.124L37.2133 194.055L37.1072 194.124L36.9879 194.26Z" fill="#8CFF83"/>
<path d="M172.114 67.4614V58.2007H173.122L173.161 59.2766C173.546 58.4731 174.289 58.0373 175.323 58.0373C177.432 58.0373 178.361 59.8214 178.361 61.8097C178.361 63.798 177.432 65.582 175.323 65.582C174.342 65.582 173.612 65.1735 173.228 64.4108V67.4614H172.114ZM173.108 61.8097C173.108 63.1579 173.705 64.4925 175.138 64.4925C176.583 64.4925 177.167 63.1852 177.167 61.8097C177.167 60.4342 176.583 59.1268 175.138 59.1268C173.705 59.1268 173.108 60.4614 173.108 61.8097ZM180.278 58.2007H181.286L181.326 59.44C181.684 58.4731 182.506 58.0373 183.475 58.0373C185.08 58.0373 185.849 59.2494 185.849 60.7747V65.4186H184.735V61.1015C184.735 59.7669 184.31 59.0451 183.249 59.0451C182.122 59.0451 181.392 59.7669 181.392 61.1015V65.4186H180.278V58.2007ZM188.02 67.4614V58.2007H189.028L189.067 59.2766C189.452 58.4731 190.195 58.0373 191.229 58.0373C193.338 58.0373 194.266 59.8214 194.266 61.8097C194.266 63.798 193.338 65.582 191.229 65.582C190.248 65.582 189.518 65.1735 189.134 64.4108V67.4614H188.02ZM189.014 61.8097C189.014 63.1579 189.611 64.4925 191.044 64.4925C192.489 64.4925 193.073 63.1852 193.073 61.8097C193.073 60.4342 192.489 59.1268 191.044 59.1268C189.611 59.1268 189.014 60.4614 189.014 61.8097ZM195.534 58.2007H196.555L196.595 59.1949C196.861 58.4459 197.338 58.0373 198.041 58.0373C198.651 58.0373 199.022 58.4459 199.235 59.3856C199.487 58.5548 200.057 58.0373 200.786 58.0373C201.861 58.0373 202.325 58.9634 202.325 61.0879V65.4186H201.211V61.0879C201.211 59.6171 200.999 59.0451 200.455 59.0451C199.845 59.0451 199.487 59.7805 199.487 61.0879V65.4186H198.373V61.0879C198.373 59.6307 198.147 59.0451 197.537 59.0451C196.993 59.0451 196.662 59.7805 196.662 61.0879V65.4186H195.534V58.2007Z" fill="#8CFF83"/>
<path d="M214.676 58.2007L214.769 59.5626C215.021 58.6365 215.591 58.2007 216.52 58.2007H217.926V59.2085H216.52C215.445 59.2085 214.941 59.8758 214.941 61.1151V64.4108H217.236V65.4186H211.997V64.4108H213.827V59.2085H211.997V58.2007H214.676ZM225.454 65.4186H224.393V64.2202C224.021 65.1598 223.212 65.582 222.284 65.582C220.719 65.582 219.949 64.37 219.949 62.8447V58.2007H221.077V62.5042C221.077 63.8525 221.501 64.5742 222.522 64.5742C223.61 64.5742 224.34 63.8525 224.34 62.5042V58.2007H225.454V65.4186ZM227.995 58.2007H229.003L229.042 59.44C229.401 58.4731 230.223 58.0373 231.191 58.0373C232.796 58.0373 233.565 59.2494 233.565 60.7747V65.4186H232.451V61.1015C232.451 59.7669 232.027 59.0451 230.966 59.0451C229.838 59.0451 229.109 59.7669 229.109 61.1015V65.4186H227.995V58.2007ZM249.511 55.7494V65.4186H248.503L248.463 64.3836C248.078 65.1326 247.322 65.582 246.235 65.582C244.206 65.582 243.277 63.798 243.277 61.8097C243.277 59.8214 244.206 58.0373 246.235 58.0373C247.283 58.0373 247.999 58.4323 248.397 59.154V55.7494H249.511ZM244.444 61.8097C244.444 63.1851 245.015 64.4925 246.474 64.4925C247.919 64.4925 248.503 63.1579 248.503 61.8097C248.503 60.407 247.919 59.0723 246.474 59.0723C245.015 59.0723 244.444 60.3797 244.444 61.8097ZM251.455 61.8097C251.455 59.5217 252.728 58.0373 254.678 58.0373C256.23 58.0373 257.609 59.0859 257.728 61.6462L257.742 62.1638H252.649C252.741 63.6346 253.471 64.4925 254.678 64.4925C255.434 64.4925 256.11 64.0431 256.429 63.2805L257.622 63.3758C257.211 64.7377 256.031 65.582 254.678 65.582C252.728 65.582 251.455 64.0976 251.455 61.8097ZM252.662 61.156H256.521C256.323 59.6443 255.54 59.1268 254.678 59.1268C253.564 59.1268 252.848 59.8758 252.662 61.156ZM265.774 58.2007L263.214 65.4186H261.808L259.248 58.2007H260.442L262.511 64.2202L264.58 58.2007H265.774Z" fill="#EEEFF1"/>
<path d="M26.2632 60.3116H39.5263M39.5263 60.3116L36.8737 57.4744M39.5263 60.3116L36.8737 63.1488" stroke="#CED0D6" stroke-linecap="round" stroke-linejoin="round"/>
<path d="M44.5707 58.2007H45.592L45.6318 59.1949C45.8971 58.4459 46.3745 58.0373 47.0775 58.0373C47.6876 58.0373 48.059 58.4459 48.2712 59.3856C48.5232 58.5548 49.0935 58.0373 49.823 58.0373C50.8973 58.0373 51.3615 58.9634 51.3615 61.0879V65.4186H50.2474V61.0879C50.2474 59.6171 50.0352 59.0451 49.4914 59.0451C48.8813 59.0451 48.5232 59.7805 48.5232 61.0879V65.4186H47.4091V61.0879C47.4091 59.6307 47.1836 59.0451 46.5735 59.0451C46.0297 59.0451 45.6981 59.7805 45.6981 61.0879V65.4186H44.5707V58.2007ZM58.5847 65.4186H57.5237V64.2202C57.1523 65.1599 56.3432 65.582 55.4148 65.582C53.8498 65.582 53.0805 64.37 53.0805 62.8447V58.2007H54.2079V62.5042C54.2079 63.8525 54.6323 64.5743 55.6535 64.5743C56.7411 64.5743 57.4706 63.8525 57.4706 62.5042V58.2007H58.5847V65.4186ZM65.5559 60.4342C65.3968 59.6171 64.6408 59.1268 63.7389 59.1268C63.0094 59.1268 62.3197 59.5081 62.333 60.2572C62.333 61.0334 63.2349 61.2105 64.0041 61.4284C65.3305 61.7688 66.7231 62.2046 66.7231 63.5801C66.7231 64.9964 65.357 65.582 63.9776 65.582C62.3595 65.582 61.0332 64.6423 60.9404 63.1443L62.0942 63.0626C62.2269 63.9342 62.9961 64.4925 63.9776 64.4925C64.7336 64.4925 65.5427 64.2883 65.5427 63.512C65.5427 62.7221 64.5479 62.5996 63.8052 62.4225C62.5187 62.1093 61.1658 61.6326 61.1658 60.3116C61.1526 58.8544 62.4258 58.0373 63.8582 58.0373C65.3172 58.0373 66.4446 58.9498 66.67 60.3525L65.5559 60.4342ZM68.6808 61.8097C68.6808 59.5218 69.9541 58.0373 71.9038 58.0373C73.4556 58.0373 74.8349 59.086 74.9543 61.6463L74.9676 62.1638H69.8745C69.9674 63.6346 70.6968 64.4925 71.9038 64.4925C72.6598 64.4925 73.3362 64.0431 73.6545 63.2805L74.8482 63.3758C74.4371 64.7377 73.2566 65.582 71.9038 65.582C69.9541 65.582 68.6808 64.0976 68.6808 61.8097ZM69.8878 61.156H73.7474C73.5484 59.6443 72.7659 59.1268 71.9038 59.1268C70.7897 59.1268 70.0735 59.8758 69.8878 61.156Z" fill="#8BA5FF"/>
<path d="M87.5308 65.0373C85.7535 65.0373 84.4935 63.5937 84.4935 61.5373C84.4935 59.4809 85.7535 58.0373 87.5308 58.0373C88.4725 58.0373 89.3611 58.5821 89.6662 59.3447V58.2007H90.7272V64.7104C90.7272 66.617 89.4672 67.6248 87.6236 67.6248C86.1249 67.6248 85.0108 66.7941 84.6925 65.5276L85.8596 65.4458C86.1382 66.1268 86.7483 66.5353 87.6236 66.5353C88.8704 66.5353 89.6131 65.9906 89.6131 64.9692V63.7844C89.2417 64.5198 88.3929 65.0373 87.5308 65.0373ZM85.6607 61.5373C85.6607 62.94 86.4167 63.9478 87.6634 63.9478C88.8571 63.9478 89.6131 62.94 89.6264 61.5373C89.6529 60.1346 88.8969 59.1268 87.6634 59.1268C86.4167 59.1268 85.6607 60.1346 85.6607 61.5373ZM96.6639 58.2007V64.4108H99.0645V65.4186H92.7645V64.4108H95.5498V59.2085H93.0298V58.2007H96.6639ZM95.4039 57.1249V55.7494H96.6639V57.1249H95.4039ZM102.468 56.2941H103.582V58.2007H106.394V59.2085H103.582V63.4303C103.582 64.0431 103.9 64.4108 104.497 64.4108H106.381V65.4186H104.497C103.065 65.4186 102.468 64.6287 102.468 63.4303V59.2085H100.452V58.2007H102.468V56.2941ZM110.766 63.8525H112.331V65.4186H110.766V63.8525ZM110.766 60.6112V59.0451H112.331V60.6112H110.766ZM121.477 54.9323C118.453 58.5276 118.453 63.049 121.477 66.6443H120.522C117.193 63.1852 117.193 58.3914 120.522 54.9323H121.477ZM158.243 54.9323C161.572 58.3914 161.572 63.1852 158.243 66.6443H157.288C160.312 63.049 160.312 58.5276 157.288 54.9323H158.243Z" fill="#89B4FA"/>
<path d="M124.098 58.2007H125.119L125.159 59.1949C125.424 58.4459 125.902 58.0373 126.605 58.0373C127.215 58.0373 127.586 58.4459 127.798 59.3856C128.05 58.5548 128.621 58.0373 129.35 58.0373C130.424 58.0373 130.889 58.9634 130.889 61.0879V65.4186H129.774V61.0879C129.774 59.6171 129.562 59.0451 129.018 59.0451C128.408 59.0451 128.05 59.7805 128.05 61.0879V65.4186H126.936V61.0879C126.936 59.6307 126.711 59.0451 126.101 59.0451C125.557 59.0451 125.225 59.7805 125.225 61.0879V65.4186H124.098V58.2007ZM132.408 60.3252C132.674 58.9634 133.827 58.0373 135.286 58.0373C136.984 58.0373 138.111 59.0451 138.111 61.0606V63.9614C138.111 64.261 138.244 64.4108 138.549 64.4108H138.828V65.4186H138.483C137.634 65.4186 137.13 64.9556 137.011 64.3019C136.732 64.9692 135.936 65.582 134.822 65.582C133.43 65.582 132.289 64.8194 132.289 63.5256C132.289 62.0412 133.39 61.6599 134.942 61.3603L136.997 60.9381C136.984 59.7124 136.321 59.1268 135.286 59.1268C134.411 59.1268 133.774 59.6715 133.602 60.4206L132.408 60.3252ZM133.456 63.5256C133.456 64.0976 133.934 64.5742 134.968 64.5742C136.122 64.5606 137.024 63.7435 137.024 62.3136V61.9595L135.366 62.2591C134.318 62.4497 133.456 62.5178 133.456 63.5256ZM144.38 58.2007V64.4108H146.781V65.4186H140.481V64.4108H143.266V59.2085H140.746V58.2007H144.38ZM143.12 57.1249V55.7494H144.38V57.1249H143.12ZM148.606 58.2007H149.614L149.654 59.44C150.012 58.4731 150.834 58.0373 151.802 58.0373C153.407 58.0373 154.176 59.2494 154.176 60.7747V65.4186H153.062V61.1015C153.062 59.7669 152.638 59.0451 151.577 59.0451C150.449 59.0451 149.72 59.7669 149.72 61.1015V65.4186H148.606V58.2007Z" fill="#FF4747"/>
<path d="M601 3L13 3L13 37.0465L601 37.0465V3Z" fill="#182449"/>
<path fill-rule="evenodd" clip-rule="evenodd" d="M586.666 14.3488H590.914C591.525 14.3488 592.02 14.8569 592.02 15.4837V24.5628C592.02 25.1896 591.525 25.6977 590.914 25.6977H586.666V14.3488ZM585.492 13.214H586.666H590.914C592.136 13.214 593.125 14.2302 593.125 15.4837V24.5628C593.125 25.8164 592.136 26.8326 590.914 26.8326H586.666H585.492H581.243C580.022 26.8326 579.033 25.8164 579.033 24.5628V15.4837C579.033 14.2302 580.022 13.214 581.243 13.214H585.492ZM585.492 25.6977H581.243C580.633 25.6977 580.138 25.1896 580.138 24.5628V15.4837C580.138 14.8569 580.633 14.3488 581.243 14.3488H585.492V25.6977Z" fill="#CED0D6"/>
<path fill-rule="evenodd" clip-rule="evenodd" d="M569.051 14.0651C569.299 14.0651 569.5 14.2557 569.5 14.4907V19.1721H574.439C574.687 19.1721 574.888 19.3626 574.888 19.5977C574.888 19.8327 574.687 20.0233 574.439 20.0233H569.5V24.7047C569.5 24.9397 569.299 25.1302 569.051 25.1302C568.803 25.1302 568.602 24.9397 568.602 24.7047V20.0233H563.663C563.414 20.0233 563.213 19.8327 563.213 19.5977C563.213 19.3626 563.414 19.1721 563.663 19.1721H568.602V14.4907C568.602 14.2557 568.803 14.0651 569.051 14.0651Z" fill="#CED0D6"/>
<path d="M101.421 3L13 3L13 37.0465H101.421V3Z" fill="#11131F"/>
<path d="M40.6316 13.7814H29.579C28.6633 13.7814 27.9211 14.5436 27.9211 15.4837V24.5628C27.9211 25.503 28.6633 26.2651 29.579 26.2651H40.6316C41.5472 26.2651 42.2895 25.503 42.2895 24.5628V15.4837C42.2895 14.5436 41.5472 13.7814 40.6316 13.7814Z" stroke="#CED0D6"/>
<path d="M31.2146 21.7028L33.4029 19.4558L31.2146 17.2089" stroke="#CED0D6" stroke-linecap="round"/>
<path d="M34.5526 22.8605H37.8684" stroke="#CED0D6" stroke-linecap="round"/>
<path d="M61.7642 18.6115L57.2945 23.555H61.8703V24.5628H56.0876V23.3235L60.5705 18.3527H56.2202V17.3449H61.7642V18.6115ZM68.6559 19.5784C68.4967 18.7613 67.7407 18.271 66.8388 18.271C66.1093 18.271 65.4197 18.6523 65.4329 19.4013C65.4329 20.1776 66.3348 20.3546 67.1041 20.5725C68.4304 20.913 69.823 21.3488 69.823 22.7243C69.823 24.1406 68.4569 24.7262 67.0775 24.7262C65.4594 24.7262 64.1331 23.7865 64.0403 22.2885L65.1942 22.2068C65.3268 23.0784 66.0961 23.6367 67.0775 23.6367C67.8335 23.6367 68.6426 23.4325 68.6426 22.6562C68.6426 21.8663 67.6479 21.7437 66.9051 21.5667C65.6186 21.2535 64.2658 20.7768 64.2658 19.4558C64.2525 17.9986 65.5258 17.1815 66.9582 17.1815C68.4171 17.1815 69.5445 18.094 69.77 19.4967L68.6559 19.5784ZM72.245 14.8936H73.3591V18.3119C73.7702 17.5356 74.5926 17.1815 75.4547 17.1815C77.0462 17.1815 77.8155 18.3936 77.8155 19.9189V24.5628H76.7014V20.3274C76.7014 18.9928 76.277 18.271 75.2159 18.271C74.0886 18.271 73.3591 18.9928 73.3591 20.3274V24.5628H72.245V14.8936Z" fill="white"/>
</g>
<rect x="12.75" y="2.75" width="588.5" height="244.5" rx="5.25" stroke="#C9D3EE" stroke-width="0.5"/>
</g>
<defs>
<filter id="filter0_dd_255_832" x="0.5" y="0.5" width="613" height="269" filterUnits="userSpaceOnUse" color-interpolation-filters="sRGB">
<feFlood flood-opacity="0" result="BackgroundImageFix"/>
<feColorMatrix in="SourceAlpha" type="matrix" values="0 0 0 0 0 0 0 0 0 0 0 0 0 0 0 0 0 0 127 0" result="hardAlpha"/>
<feMorphology radius="3" operator="erode" in="SourceAlpha" result="effect1_dropShadow_255_832"/>
<feOffset dy="10"/>
<feGaussianBlur stdDeviation="7.5"/>
<feColorMatrix type="matrix" values="0 0 0 0 0 0 0 0 0 0 0 0 0 0 0 0 0 0 0.1 0"/>
<feBlend mode="normal" in2="BackgroundImageFix" result="effect1_dropShadow_255_832"/>
<feColorMatrix in="SourceAlpha" type="matrix" values="0 0 0 0 0 0 0 0 0 0 0 0 0 0 0 0 0 0 127 0" result="hardAlpha"/>
<feMorphology radius="4" operator="erode" in="SourceAlpha" result="effect2_dropShadow_255_832"/>
<feOffset dy="4"/>
<feGaussianBlur stdDeviation="3"/>
<feColorMatrix type="matrix" values="0 0 0 0 0 0 0 0 0 0 0 0 0 0 0 0 0 0 0.1 0"/>
<feBlend mode="normal" in2="effect1_dropShadow_255_832" result="effect2_dropShadow_255_832"/>
<feBlend mode="normal" in="SourceGraphic" in2="effect2_dropShadow_255_832" result="shape"/>
</filter>
<filter id="filter1_dd_255_832" x="1" y="1" width="612" height="268" filterUnits="userSpaceOnUse" color-interpolation-filters="sRGB">
<feFlood flood-opacity="0" result="BackgroundImageFix"/>
<feColorMatrix in="SourceAlpha" type="matrix" values="0 0 0 0 0 0 0 0 0 0 0 0 0 0 0 0 0 0 127 0" result="hardAlpha"/>
<feMorphology radius="3" operator="erode" in="SourceAlpha" result="effect1_dropShadow_255_832"/>
<feOffset dy="10"/>
<feGaussianBlur stdDeviation="7.5"/>
<feColorMatrix type="matrix" values="0 0 0 0 0 0 0 0 0 0 0 0 0 0 0 0 0 0 0.1 0"/>
<feBlend mode="normal" in2="BackgroundImageFix" result="effect1_dropShadow_255_832"/>
<feColorMatrix in="SourceAlpha" type="matrix" values="0 0 0 0 0 0 0 0 0 0 0 0 0 0 0 0 0 0 127 0" result="hardAlpha"/>
<feMorphology radius="4" operator="erode" in="SourceAlpha" result="effect2_dropShadow_255_832"/>
<feOffset dy="4"/>
<feGaussianBlur stdDeviation="3"/>
<feColorMatrix type="matrix" values="0 0 0 0 0 0 0 0 0 0 0 0 0 0 0 0 0 0 0.1 0"/>
<feBlend mode="normal" in2="effect1_dropShadow_255_832" result="effect2_dropShadow_255_832"/>
<feBlend mode="normal" in="SourceGraphic" in2="effect2_dropShadow_255_832" result="shape"/>
</filter>
<clipPath id="clip0_255_832">
<rect x="13" y="3" width="588" height="244" rx="5" fill="white"/>
</clipPath>
</defs>
</svg>
