<svg width="68" height="75" viewBox="0 0 68 75" fill="none" xmlns="http://www.w3.org/2000/svg">
<path d="M4.50573 15.8246L29.5025 1.25073C32.3874 -0.431217 35.969 -0.415782 38.839 1.29096L63.5626 15.9939C66.3155 17.631 68 20.5798 68 23.7618V51.6461C68 54.8745 66.2665 57.859 63.4496 59.4801L38.6106 73.7751C35.7615 75.4148 32.2426 75.4078 29.4001 73.7568L4.51871 59.3048C1.71973 57.679 0 54.7045 0 51.4891V23.6328C0 20.4226 1.71408 17.4522 4.50573 15.8246Z" fill="white"/>
<path d="M49.1828 27.3556L34.5593 18.9812C33.9879 18.654 33.2829 18.6574 32.7148 18.9902L20.2527 26.289C19.046 26.9957 19.0577 28.7301 20.2738 29.4208L32.8981 36.5909C33.4666 36.9138 33.8172 37.5135 33.8172 38.1629V53.2685C33.8172 54.6834 35.3803 55.5522 36.5984 54.8144L49.3841 47.0701C49.9328 46.7377 50.265 46.1439 50.2588 45.5065L50.0962 28.9067C50.0899 28.266 49.7426 27.6762 49.1828 27.3556Z" fill="black"/>
</svg>
