<svg width="70" height="18" viewBox="0 0 70 18" fill="none" xmlns="http://www.w3.org/2000/svg">
<path d="M1.06017 3.79791L6.94177 0.300174C7.62055 -0.103492 8.46329 -0.0997878 9.13858 0.30983L14.9559 3.83853C15.6037 4.23145 16 4.93914 16 5.70284V12.3951C16 13.1699 15.5921 13.8862 14.9293 14.2752L9.08485 17.706C8.41448 18.0996 7.58649 18.0979 6.91768 17.7016L1.06322 14.2332C0.404642 13.843 0 13.1291 0 12.3574V5.67187C0 4.90143 0.403314 4.18853 1.06017 3.79791Z" fill="#C9D3EE"/>
<path d="M11.5724 6.56534L8.13159 4.55549C7.99715 4.47696 7.83128 4.47778 7.69761 4.55764L4.76534 6.30936C4.48142 6.47897 4.48417 6.89522 4.7703 7.06099L7.74073 8.78182C7.87448 8.85931 7.95699 9.00324 7.95699 9.15909V12.7844C7.95699 13.124 8.32477 13.3325 8.61138 13.1555L11.6198 11.2968C11.7489 11.217 11.8271 11.0745 11.8256 10.9216L11.7873 6.93762C11.7859 6.78384 11.7041 6.64228 11.5724 6.56534Z" fill="#11131F"/>
<path d="M29.032 7.84C30.488 8.288 31.224 9.232 31.224 10.672C31.224 11.68 30.888 12.48 30.216 13.088C29.544 13.696 28.632 14 27.48 14H22.2V2.608H27.416C28.44 2.608 29.272 2.864 29.88 3.36C30.488 3.856 30.792 4.528 30.792 5.392C30.792 6.624 30.2 7.44 29.032 7.84ZM27.112 4.224H24.136V7.216H27C27.608 7.216 28.056 7.088 28.376 6.816C28.696 6.56 28.856 6.176 28.856 5.68C28.856 4.72 28.264 4.224 27.112 4.224ZM24.136 12.352H27.224C27.896 12.352 28.408 12.208 28.76 11.888C29.112 11.584 29.304 11.136 29.304 10.56C29.304 9.408 28.616 8.816 27.272 8.816H24.136V12.352ZM38.5871 10.24V5.744H40.4591V14H38.6671L38.6351 12.848C38.0591 13.76 37.1951 14.208 36.0751 14.208C35.2111 14.208 34.5231 13.968 34.0431 13.456C33.5631 12.96 33.3231 12.272 33.3231 11.376V5.744H35.1951V10.976C35.1951 12.032 35.6591 12.544 36.6191 12.544C37.1951 12.544 37.6751 12.352 38.0431 11.952C38.3951 11.552 38.5871 10.976 38.5871 10.24ZM44.5701 4.432H42.6981V2.608H44.5701V4.432ZM44.5701 14H42.6981V5.744H44.5701V14ZM48.6795 14H46.8075V2.608H48.6795V14ZM56.3729 6.656V2.608H58.2449V14H56.5969L56.5649 12.832C55.9889 13.76 55.1409 14.224 54.0369 14.224C52.9649 14.224 52.1009 13.824 51.4449 12.992C50.7729 12.176 50.4529 11.104 50.4529 9.792C50.4529 8.512 50.7729 7.488 51.4289 6.704C52.0849 5.936 52.9169 5.552 53.9249 5.552C54.9809 5.552 55.7969 5.92 56.3729 6.656ZM54.3569 12.592C54.9649 12.592 55.4769 12.336 55.8769 11.824C56.2609 11.312 56.4689 10.64 56.4689 9.808C56.4689 8.976 56.2769 8.304 55.8929 7.824C55.4769 7.36 54.9649 7.12 54.3569 7.12C53.7169 7.12 53.2209 7.36 52.8529 7.824C52.4689 8.304 52.2929 8.96 52.2929 9.792C52.2929 10.656 52.4689 11.328 52.8529 11.84C53.2209 12.352 53.7169 12.592 54.3569 12.592ZM62.4954 14H60.5594V2.608H62.4954V14ZM68.8871 7.152L67.1911 7.088V11.68C67.1911 11.984 67.2391 12.192 67.3671 12.304C67.4791 12.432 67.6871 12.48 67.9751 12.48H68.8871V14H67.3991C66.6631 14 66.1191 13.84 65.7991 13.52C65.4791 13.2 65.3191 12.656 65.3191 11.92V7.104L64.1351 7.152V5.744L65.3191 5.792V3.2H67.1911V5.792L68.8871 5.744V7.152Z" fill="#C9D3EE"/>
</svg>
