<svg width="62" height="16" viewBox="0 0 62 16" fill="none" xmlns="http://www.w3.org/2000/svg">
<path d="M16 8C16 12.4183 12.4183 16 8 16C3.58172 16 0 12.4183 0 8C0 3.58172 3.58172 0 8 0C12.4183 0 16 3.58172 16 8Z" fill="#C9D3EE"/>
<path d="M12 11.2C12 11.6418 11.6418 12 11.2 12H7.2C5.43269 12 4 10.5673 4 8.8V4.8C4 4.35817 4.35817 4 4.8 4H8.8C10.5673 4 12 5.43269 12 7.2V11.2Z" fill="#0C0D14"/>
<path d="M28.28 9.288L30.696 1.608H33.432V13H31.64V7.128L31.8 3.32L31 6.024L28.824 13H26.888L24.584 5.848L23.816 3.256L23.976 7.128V13H22.2V1.608H24.92L27.416 9.288L27.848 11L28.28 9.288ZM41.009 9.24V4.744H42.881V13H41.089L41.057 11.848C40.481 12.76 39.617 13.208 38.497 13.208C37.633 13.208 36.945 12.968 36.465 12.456C35.985 11.96 35.745 11.272 35.745 10.376V4.744H37.617V9.976C37.617 11.032 38.081 11.544 39.041 11.544C39.617 11.544 40.097 11.352 40.465 10.952C40.817 10.552 41.009 9.976 41.009 9.24ZM48.256 13.256C47.168 13.256 46.32 13.032 45.712 12.552C45.104 12.072 44.752 11.384 44.656 10.472L46.4 10.424C46.528 11.4 47.168 11.88 48.32 11.88C48.864 11.88 49.28 11.784 49.584 11.592C49.888 11.4 50.048 11.128 50.048 10.776C50.048 10.264 49.648 9.928 48.864 9.768L47.216 9.432C45.648 9.112 44.864 8.328 44.864 7.096C44.864 6.328 45.152 5.704 45.728 5.24C46.304 4.776 47.088 4.536 48.08 4.536C49.072 4.536 49.872 4.776 50.48 5.224C51.088 5.688 51.44 6.328 51.552 7.16L49.808 7.208C49.664 6.344 49.072 5.912 48.048 5.912C47.584 5.912 47.232 6.008 46.976 6.168C46.72 6.344 46.592 6.584 46.592 6.904C46.592 7.384 46.96 7.704 47.696 7.864L49.392 8.216C50.224 8.408 50.832 8.68 51.216 9.064C51.6 9.448 51.808 9.96 51.808 10.568C51.808 11.416 51.488 12.072 50.848 12.552C50.208 13.032 49.344 13.256 48.256 13.256ZM61.031 8.92V9.384H54.935C54.967 10.152 55.191 10.728 55.575 11.144C55.959 11.56 56.487 11.752 57.159 11.752C58.103 11.752 58.743 11.304 59.079 10.408L60.871 10.568C60.615 11.432 60.151 12.104 59.511 12.552C58.871 13.016 58.087 13.24 57.159 13.24C55.879 13.24 54.871 12.84 54.135 12.008C53.399 11.208 53.031 10.152 53.031 8.84C53.031 7.592 53.383 6.552 54.103 5.736C54.823 4.936 55.799 4.536 57.015 4.536C58.215 4.536 59.191 4.936 59.927 5.704C60.663 6.504 61.031 7.576 61.031 8.92ZM58.503 6.52C58.135 6.168 57.655 5.976 57.063 5.976C56.455 5.976 55.959 6.168 55.607 6.52C55.223 6.904 54.999 7.416 54.951 8.088H59.159C59.063 7.4 58.855 6.872 58.503 6.52Z" fill="#C9D3EE"/>
</svg>
